<?xml version="1.0" encoding="UTF-8" standalone="no"?>
<svg
   version="1.2"
   viewBox="0 0 743.99023 723.02197"
   width="743.99023"
   height="723.02197"
   id="svg1"
   xml:space="preserve"
   xmlns:xlink="http://www.w3.org/1999/xlink"
   xmlns="http://www.w3.org/2000/svg"
   xmlns:svg="http://www.w3.org/2000/svg"
   xmlns:rdf="http://www.w3.org/1999/02/22-rdf-syntax-ns#"
   xmlns:cc="http://creativecommons.org/ns#"
   xmlns:dc="http://purl.org/dc/elements/1.1/"><defs
     id="defs1"><linearGradient
       id="linearGradient1"><stop
         style="stop-color:#fc93b3;stop-opacity:1;"
         offset="0"
         id="stop1" /><stop
         style="stop-color:#6d79ef;stop-opacity:1;"
         offset="1"
         id="stop2" /></linearGradient><linearGradient
       xlink:href="#linearGradient1"
       id="linearGradient2"
       x1="140"
       y1="511.98901"
       x2="883.99023"
       y2="511.98901"
       gradientUnits="userSpaceOnUse" /><linearGradient
       xlink:href="#linearGradient1"
       id="linearGradient3"
       gradientUnits="userSpaceOnUse"
       x1="176.81749"
       y1="199.04033"
       x2="834.90027"
       y2="834.14209" /><linearGradient
       xlink:href="#linearGradient1"
       id="linearGradient4"
       gradientUnits="userSpaceOnUse"
       x1="140"
       y1="511.98901"
       x2="883.99023"
       y2="511.98901" /></defs><title
     id="title1">couplecards</title><style
     id="style1">
		.s0 { fill: #fefefe } 
		.s1 { fill: #be71c9 } 
	</style><g
     id="Background"
     style="fill:url(#linearGradient2)"
     transform="translate(-140,-150.47804)"><path
       id="Path 1"
       class="s1"
       d="m 305,150.65 c -4.68,0.16 -14.13,0.78 -21,1.37 -6.88,0.6 -17,2 -22.5,3.11 -5.5,1.11 -14.28,3.39 -19.5,5.07 -5.22,1.67 -13.55,4.93 -18.5,7.25 -4.95,2.31 -12.15,6.24 -16,8.72 -3.85,2.48 -10.38,7.22 -14.5,10.53 -4.13,3.31 -9.94,8.67 -12.92,11.91 -2.99,3.24 -8.1,9.49 -11.37,13.89 -3.27,4.4 -8.57,13.4 -11.79,20 -3.22,6.6 -7.01,15.6 -8.42,20 -1.41,4.4 -3.43,12.27 -4.47,17.5 -1.05,5.23 -2.38,15.24 -2.97,22.25 -0.7,8.48 -1.06,81.9 -1.06,219 0.01,133.65 0.38,211.18 1.05,220.25 0.58,7.7 1.91,18.27 2.96,23.5 1.05,5.23 3.55,14.23 5.55,20 2.01,5.77 5.13,13.42 6.93,17 1.8,3.58 6.1,10.77 9.55,16 3.92,5.92 10.46,13.68 17.37,20.6 7.02,7.02 14.58,13.4 20.59,17.35 5.22,3.44 12.2,7.62 15.5,9.29 3.3,1.67 9.94,4.55 14.75,6.4 4.81,1.85 13.14,4.47 18.5,5.83 5.36,1.35 15.37,3.26 22.25,4.25 11.7,1.67 26.81,1.78 235,1.78 178.88,0 224.85,-0.26 234.5,-1.33 6.6,-0.74 16.27,-2.18 21.5,-3.22 5.23,-1.03 14.23,-3.51 20,-5.52 5.77,-2 13.87,-5.34 18,-7.42 4.12,-2.07 11.55,-6.47 16.5,-9.76 4.95,-3.3 12.78,-9.54 17.41,-13.87 4.62,-4.34 10.73,-10.8 13.57,-14.38 2.84,-3.58 6.82,-9.09 8.84,-12.25 2.03,-3.16 5.21,-8.79 7.07,-12.5 1.87,-3.71 5.04,-11.48 7.05,-17.25 2,-5.77 4.49,-14.77 5.53,-20 1.04,-5.23 2.37,-15.01 2.96,-21.75 0.72,-8.23 1.07,-80.55 1.06,-220.5 0,-129.2 -0.38,-212.62 -1,-219.75 -0.54,-6.32 -1.93,-16.45 -3.08,-22.5 -1.16,-6.05 -3.43,-15.05 -5.07,-20 -1.63,-4.95 -4.91,-13.05 -7.29,-18 -2.38,-4.95 -7.16,-13.28 -10.63,-18.5 -3.8,-5.73 -10.5,-13.7 -16.86,-20.06 -6.62,-6.63 -14.29,-13.04 -20.56,-17.2 -5.5,-3.64 -13.83,-8.4 -18.5,-10.56 -4.67,-2.16 -12.77,-5.29 -18,-6.96 -5.23,-1.66 -14.23,-3.96 -20,-5.11 -5.77,-1.15 -14.33,-2.61 -19,-3.26 -6.24,-0.86 -64.48,-1.21 -219.5,-1.33 -116.05,-0.09 -214.82,-0.03 -219.5,0.13 z"
       style="fill:url(#linearGradient3)" /><path
       id="Path 2"
       class="s0"
       d="m 534,259.49 c -23.38,5.19 -62.07,13.77 -86,19.06 -23.93,5.28 -66,14.53 -93.5,20.54 -30.78,6.73 -51.73,11.79 -54.49,13.17 -2.47,1.23 -6.52,4.26 -9.01,6.74 -2.49,2.48 -5.76,6.98 -7.27,10 -1.51,3.02 -3.01,7.75 -3.32,10.5 -0.47,4 2.03,17.94 12.56,70 7.22,35.75 23.72,117.65 36.65,182 16.98,84.45 24.18,118.39 25.9,122 1.32,2.75 4.21,6.91 6.43,9.25 2.23,2.34 5.85,5.37 8.05,6.75 2.2,1.37 4.23,2.5 4.5,2.5 0.27,0 0.5,-86.17 0.5,-191.5 0,-135.1 0.32,-193.05 1.1,-196.75 0.6,-2.89 2.69,-8.63 4.64,-12.75 2.67,-5.64 5.44,-9.38 11.16,-15.08 5.13,-5.12 9.55,-8.49 13.6,-10.38 3.3,-1.53 8.93,-3.4 12.5,-4.14 4.97,-1.03 21.54,-1.41 70.5,-1.6 35.2,-0.15 80.2,-0.4 100,-0.56 l 36,-0.29 c -1.13,-10.42 -2.3,-15.93 -3.33,-18.95 -1.04,-3.02 -2.85,-7.41 -4.03,-9.75 -1.18,-2.34 -4.16,-6.27 -6.64,-8.75 -2.48,-2.48 -7.53,-5.92 -11.25,-7.66 -5.47,-2.57 -8.27,-3.23 -14.75,-3.48 -7.09,-0.28 -12.86,0.77 -50.5,9.13 z m -18.5,57.49 -97,0.52 c -8.52,3.97 -12.8,6.72 -15,8.68 -2.2,1.96 -5.19,5.76 -6.65,8.44 -1.45,2.69 -3.16,7.36 -3.8,10.38 -0.86,4.09 -1.08,54.87 -0.86,198.02 l 0.31,192.52 c 5.06,10.43 7.98,14.43 10.64,16.74 2.4,2.08 6.27,4.67 8.61,5.75 2.34,1.08 6.16,2.4 8.5,2.92 2.55,0.56 60.76,1 145.25,1.07 116.97,0.11 141.77,-0.1 145.5,-1.24 2.48,-0.75 6.52,-2.53 9,-3.95 2.48,-1.42 6.04,-4.32 7.93,-6.45 1.88,-2.14 4.58,-6.36 6,-9.38 l 2.57,-5.5 c 0.49,-371.69 0.37,-389.49 -1.11,-394.5 -0.9,-3.03 -2.63,-7.08 -3.86,-9 -1.22,-1.93 -3.98,-5.04 -6.13,-6.91 -2.14,-1.88 -5.92,-4.26 -8.4,-5.29 -2.48,-1.04 -7.2,-2.31 -10.5,-2.84 -3.3,-0.52 -25.8,-0.84 -50,-0.72 -24.2,0.12 -87.65,0.46 -141,0.74 z"
       style="fill:#f9f9f9" /><path
       id="Path 3"
       class="s1"
       d="m 507,436.06 c -3.02,0.44 -7.98,1.71 -11,2.83 -3.02,1.12 -8.2,3.77 -11.5,5.88 -3.3,2.12 -8.37,6.53 -11.27,9.79 -2.9,3.27 -6.82,9.09 -8.71,12.94 -1.89,3.85 -4.12,9.93 -4.96,13.5 -0.84,3.57 -1.54,10.77 -1.56,16 -0.01,6.22 0.66,12.26 1.97,17.5 1.1,4.4 4.04,12.05 6.53,17 2.5,4.95 7.62,12.83 11.37,17.5 3.76,4.67 14.44,15.77 23.73,24.65 9.3,8.89 23.88,22.35 32.4,29.91 8.52,7.57 18.09,15.94 21.25,18.6 4.48,3.77 6.52,4.84 9.25,4.84 3.03,0 5.41,-1.63 17.75,-12.22 7.84,-6.73 21.45,-18.81 30.25,-26.86 8.8,-8.05 21.4,-20.22 28,-27.04 6.6,-6.83 14.24,-15.78 16.97,-19.89 2.73,-4.12 6.28,-10.64 7.87,-14.49 1.6,-3.85 3.52,-9.92 4.27,-13.5 0.74,-3.57 1.36,-10.32 1.36,-15 0,-4.68 -0.66,-11.65 -1.47,-15.5 -0.8,-3.85 -3.27,-10.71 -5.48,-15.25 -2.94,-6.04 -5.83,-10.06 -10.77,-15 -3.71,-3.72 -9.45,-8.18 -12.75,-9.92 -3.3,-1.73 -8.7,-3.95 -12,-4.92 -3.73,-1.1 -9.22,-1.76 -14.5,-1.75 -5.09,0.02 -10.91,0.74 -14.5,1.79 -3.3,0.97 -7.8,2.67 -10,3.8 -2.2,1.12 -6.48,3.92 -9.5,6.22 -3.02,2.3 -7.52,6.73 -10,9.86 -2.48,3.12 -5.17,5.67 -6,5.67 -0.83,-0.01 -2.49,-1.47 -3.71,-3.26 -1.21,-1.78 -4.36,-5.35 -7,-7.93 -2.63,-2.58 -7.49,-6.31 -10.79,-8.29 -3.3,-1.98 -8.92,-4.45 -12.5,-5.49 -3.58,-1.03 -8.98,-2.08 -12,-2.32 -3.02,-0.24 -7.98,-0.09 -11,0.35 z"
       style="fill:url(#linearGradient4)" /></g><metadata
     id="metadata4"><rdf:RDF><cc:Work
         rdf:about=""><dc:title>couplecards</dc:title></cc:Work></rdf:RDF></metadata></svg>
