<svg class="text-black" xmlns="http://www.w3.org/2000/svg" xmlns:svg="http://www.w3.org/2000/svg" style="max-width: 512px;" width="371.22314" height="374.13775" viewBox="0 0 371.22314 374.13775" preserveAspectRatio="xMidYMin">
          <path d="m 7.1154321,2.3092144 c -6.32884,2.4519 -6.994,8.3610796 -7.00386,14.2576896 v 36.00009 c 0,4.91571 -0.90386,10.81055 2.43364,14.891231 3.75604,4.59247 9.2107099,4.1084 14.5663599,4.10877 13.04656,8.5e-4 33.83052,3.98602 45.99538,-0.74231 6.149462,-2.3902 6.975662,-8.489631 7.003862,-14.257691 0.0587,-11.99933 7.6e-4,-24.00049 7.6e-4,-36 0,-4.91571 0.90386,-10.8105496 -2.43364,-14.8912396 -3.755962,-4.59234 -9.210782,-4.1084 -14.566362,-4.10876 -13.05986,-8.6e-4 -33.81357,-3.97748 -45.9961399,0.74231 m 300.9999879,0 c -6.32892,2.45196 -6.99399,8.3610796 -7.00385,14.2576896 v 36 c 0,4.91577 -0.9039,10.81048 2.43366,14.891231 3.75601,4.59241 9.21072,4.1084 14.56634,4.10877 13.0465,8.5e-4 33.8305,3.98602 45.9954,-0.74231 6.1495,-2.39026 6.9757,-8.489561 7.0038,-14.257691 0.059,-11.99933 8e-4,-24.00049 8e-4,-36 0,-4.9159 0.9039,-10.8104896 -2.4336,-14.8912396 -3.7561,-4.5924 -9.2108,-4.1084 -14.5664,-4.10876 -13.0598,-8.6e-4 -33.81356,-3.97748 -45.99615,0.74231 m -224.685936,1.34411 c -3.758,2.16968 -0.39391,7.9968896 3.36419,5.82715 3.758,-2.16968 0.39391,-7.99688 -3.36419,-5.82715 m 19.999996,0 c -3.758006,2.16968 -0.39391,7.9968896 3.36419,5.82715 3.758,-2.16968 0.39391,-7.99688 -3.36419,-5.82715 m 10,0 c -3.75801,2.16968 -0.39388,7.9968896 3.36419,5.82715 3.75801,-2.16968 0.39391,-7.99688 -3.36419,-5.82715 m 30,0 c -3.75801,2.16968 -0.39391,7.9968896 3.36419,5.82715 3.75801,-2.16968 0.39389,-7.99688 -3.36419,-5.82715 m 10,0 c -3.75801,2.16968 -0.39391,7.9968896 3.36419,5.82715 3.75798,-2.16968 0.39392,-7.99688 -3.36419,-5.82715 m 41,0 c -3.75806,2.16974 -0.39386,7.9968896 3.36419,5.82715 3.75806,-2.16974 0.39386,-7.99688 -3.36419,-5.82715 m 10,0 c -3.75806,2.16974 -0.39389,7.9968896 3.36419,5.82715 3.75806,-2.16974 0.39386,-7.99688 -3.36419,-5.82715 m 10,0 c -3.75806,2.16974 -0.39389,7.9968896 3.36419,5.82715 3.75806,-2.16974 0.39389,-7.99688 -3.36419,-5.82715 m 40,0 c -3.75803,2.16968 -0.39389,7.9968896 3.36419,5.82715 3.75803,-2.16974 0.39389,-7.99688 -3.36419,-5.82715 M 18.112342,12.000644 c 8.6665,-2.3832396 34.90654,-3.5058596 40.25696,4.61029 2.29107,3.47535 1.74203,7.99683 1.74227,11.95606 6e-4,9.25116 3.92411,29.28302 -8.00076,32.56634 -8.6645,2.38562 -34.90781,3.50391 -40.25695,-4.61029 -2.2910999,-3.4754 -1.74203,-7.99682 -1.74229,-11.95605 -6e-4,-9.35767 -4.0192899,-29.26087 8.00077,-32.56635 m 300.999998,0 c 8.66653,-2.3832396 34.90653,-3.5058596 40.25693,4.61029 2.2911,3.47535 1.7421,7.99683 1.7423,11.95606 6e-4,9.35766 4.0193,29.26092 -8.0008,32.56634 -8.6665,2.38324 -34.90648,3.50586 -40.25692,-4.61029 -2.2911,-3.4754 -1.74203,-7.99676 -1.74228,-11.95605 -5.8e-4,-9.35761 -4.01931,-29.26093 8.00077,-32.56635 m -215.68286,1.65277 c -3.758006,2.16968 -0.39389,7.99689 3.36419,5.82715 3.75803,-2.16974 0.39388,-7.99688 -3.36419,-5.82715 m 20,0 c -3.758,2.16968 -0.39391,7.99689 3.36419,5.82715 3.75801,-2.16968 0.39389,-7.99688 -3.36419,-5.82715 m 30,0 c -3.75801,2.16968 -0.39388,7.99689 3.36419,5.82715 3.75801,-2.16968 0.39389,-7.99688 -3.36419,-5.82715 m 10,0 c -3.75803,2.16974 -0.39388,7.99689 3.36419,5.82715 3.75803,-2.16968 0.39392,-7.99688 -3.36419,-5.82715 m 20.00384,-0.0393 c -4.24408,2.66663 0.39884,8.39246 4.35651,5.90577 4.24417,-2.66669 -0.39887,-8.3924 -4.35651,-5.90577 m 10.99616,0.0393 c -3.75809,2.16974 -0.3938,7.99683 3.36419,5.82715 3.75803,-2.16974 0.39389,-7.99688 -3.36419,-5.82715 m 30,0 c -3.75812,2.16974 -0.3938,7.99683 3.36419,5.82715 3.75803,-2.16968 0.39392,-7.99688 -3.36419,-5.82715 m 10,0 c -3.75812,2.16974 -0.39383,7.99683 3.36419,5.82715 3.75803,-2.16974 0.39392,-7.99688 -3.36419,-5.82715 m 10,0 c -3.75812,2.16974 -0.39383,7.99683 3.36419,5.82715 3.75803,-2.16974 0.39389,-7.99688 -3.36419,-5.82715 m 20,0 c -3.75809,2.16974 -0.39383,7.99683 3.36419,5.82715 3.75803,-2.16968 0.39389,-7.99688 -3.36419,-5.82715 m 20,0 c -3.75809,2.16974 -0.39383,7.99683 3.36419,5.82715 3.75803,-2.16974 0.39389,-7.99688 -3.36419,-5.82715 m -257.314048,8.65589 c -8.28006,3.20788 -9.81924,18.73102 -4.57022,25.14892 4.09584,5.00794 14.7647,5.61969 20.56174,3.36646 8.21317,-3.19232 9.76097,-18.80322 4.57098,-25.14893 -4.09939,-5.01227 -14.76089,-5.61413 -20.5625,-3.36645 m 301.000038,0 c -8.28017,3.20788 -9.81923,18.73108 -4.5702,25.14892 4.0958,5.00794 14.7646,5.61969 20.5617,3.36646 8.2131,-3.19232 9.761,-18.80316 4.571,-25.14893 -4.0994,-5.01227 -14.7609,-5.61413 -20.5625,-3.36645 m -234.685986,1.34411 c -3.75803,2.16974 -0.39391,7.99689 3.36419,5.82715 3.757996,-2.16968 0.39389,-7.99688 -3.36419,-5.82715 m 9.999996,0 c -3.758026,2.16974 -0.39391,7.99689 3.36419,5.82715 3.758,-2.16968 0.39389,-7.99688 -3.36419,-5.82715 m 30,0 c -3.758,2.16968 -0.39392,7.99689 3.36419,5.82715 3.758,-2.16968 0.39391,-7.99688 -3.36419,-5.82715 m 30,0 c -3.75805,2.16974 -0.39391,7.99689 3.36419,5.82715 3.75803,-2.16968 0.39389,-7.99688 -3.36419,-5.82715 m 10,0 c -3.75809,2.16974 -0.39383,7.99689 3.36419,5.82715 3.75803,-2.16968 0.39389,-7.99688 -3.36419,-5.82715 m 10.00384,-0.0393 c -4.24408,2.66663 0.3988,8.39246 4.35651,5.90577 4.24417,-2.66669 -0.3989,-8.3924 -4.35651,-5.90577 m 30.99616,0.0393 c -3.75809,2.16974 -0.39386,7.99689 3.36419,5.82715 3.75806,-2.16974 0.39389,-7.99688 -3.36419,-5.82715 m 30,0 c -3.75809,2.16974 -0.39386,7.99689 3.36419,5.82715 3.75806,-2.16974 0.39386,-7.99688 -3.36419,-5.82715 m 20,0 c -3.75806,2.16974 -0.39386,7.99689 3.36419,5.82715 3.75803,-2.16974 0.39389,-7.99688 -3.36419,-5.82715 m 10,0 c -3.75806,2.16974 -0.39386,7.99689 3.36419,5.82715 3.75806,-2.16974 0.39386,-7.99688 -3.36419,-5.82715 m 10,0 c -3.75806,2.16974 -0.39386,7.99689 3.36419,5.82715 3.75806,-2.16974 0.39389,-7.99688 -3.36419,-5.82715 m -200.999996,10 c -3.75801,2.16968 -0.39392,7.99689 3.36419,5.82715 3.75801,-2.16968 0.39389,-7.99688 -3.36419,-5.82715 m 10,0 c -3.75803,2.16974 -0.39391,7.99689 3.36419,5.82715 3.757996,-2.16968 0.39389,-7.99688 -3.36419,-5.82715 m 19.999996,0 c -3.75803,2.16974 -0.39389,7.99689 3.36419,5.82715 3.75801,-2.16968 0.39388,-7.99688 -3.36419,-5.82715 m 20,0 c -3.758,2.16968 -0.39394,7.99695 3.36419,5.82715 3.758,-2.16968 0.39389,-7.99688 -3.36419,-5.82715 m 30,0 c -3.75805,2.16974 -0.39391,7.99689 3.36419,5.82715 3.75806,-2.16974 0.39389,-7.99688 -3.36419,-5.82715 m 20.00384,-0.0393 c -4.24405,2.66656 0.3988,8.39245 4.35651,5.90576 4.24414,-2.66663 -0.39887,-8.3924 -4.35651,-5.90576 m 40.99616,0.0393 c -3.75809,2.16974 -0.39386,7.99689 3.36419,5.82715 3.75806,-2.16974 0.39389,-7.99688 -3.36419,-5.82715 m 30,0 c -3.75806,2.16974 -0.39389,7.99689 3.36419,5.82715 3.75806,-2.16974 0.39386,-7.99688 -3.36419,-5.82715 m 10,0 c -3.75806,2.16974 -0.39389,7.99689 3.36419,5.82715 3.75806,-2.16974 0.39386,-7.99688 -3.36419,-5.82715 m 10,0 c -3.75806,2.16974 -0.39389,7.99689 3.36419,5.82715 3.75806,-2.16974 0.39386,-7.99688 -3.36419,-5.82715 m -190.999996,10 c -3.75798,2.16968 -0.39391,7.99689 3.36419,5.82715 3.75806,-2.16974 0.39386,-7.99688 -3.36419,-5.82715 m 10,0 c -3.758,2.16968 -0.39389,7.99689 3.36419,5.82715 3.758056,-2.16974 0.39386,-7.99688 -3.36419,-5.82715 m 9.999996,0 c -3.757996,2.16968 -0.39391,7.99689 3.36419,5.82715 3.75806,-2.16974 0.39385,-7.99688 -3.36419,-5.82715 m 10,0 c -3.758,2.16968 -0.39388,7.99689 3.36419,5.82715 3.75806,-2.16974 0.39386,-7.99688 -3.36419,-5.82715 m 20,0 c -3.75797,2.16968 -0.39392,7.99689 3.36419,5.82715 3.75804,-2.16974 0.39386,-7.99688 -3.36419,-5.82715 m 10,0 c -3.758,2.16968 -0.39391,7.99689 3.36419,5.82715 3.75806,-2.16974 0.39383,-7.99688 -3.36419,-5.82715 m 20,0 c -3.75801,2.16968 -0.39389,7.99689 3.36419,5.82715 3.75803,-2.16968 0.39389,-7.99688 -3.36419,-5.82715 m 10,0 c -3.75809,2.16974 -0.39386,7.99689 3.36419,5.82715 3.75803,-2.16968 0.39389,-7.99688 -3.36419,-5.82715 m 61,0 c -3.75809,2.16974 -0.39386,7.99689 3.36419,5.82715 3.75803,-2.16968 0.39389,-7.99688 -3.36419,-5.82715 m 30,0 c -3.75806,2.16974 -0.39386,7.99689 3.36419,5.82715 3.75803,-2.16968 0.39389,-7.99688 -3.36419,-5.82715 m 10,0 c -3.75806,2.16974 -0.39389,7.99689 3.36419,5.82715 3.75803,-2.16974 0.39386,-7.99688 -3.36419,-5.82715 m 10,0 c -3.75806,2.16974 -0.39389,7.99689 3.36419,5.82715 3.75803,-2.16974 0.39386,-7.99688 -3.36419,-5.82715 m -200.999996,10 c -3.758,2.16968 -0.39392,7.99689 3.36419,5.82715 3.758,-2.16968 0.39391,-7.99688 -3.36419,-5.82715 m 10,0 c -3.75801,2.16968 -0.39392,7.99689 3.36419,5.82715 3.757996,-2.16968 0.39391,-7.99688 -3.36419,-5.82715 m 69.999996,0 c -3.75803,2.16974 -0.39392,7.99689 3.36419,5.82715 3.75803,-2.16968 0.39389,-7.99688 -3.36419,-5.82715 m 10,0 c -3.75806,2.16974 -0.39389,7.99689 3.36419,5.82715 3.75803,-2.16968 0.39392,-7.99688 -3.36419,-5.82715 m 21,0 c -3.75806,2.16974 -0.39389,7.99689 3.36419,5.82715 3.75803,-2.16974 0.39389,-7.99688 -3.36419,-5.82715 m -110.999996,10 c -3.758,2.16968 -0.39392,7.996891 3.36419,5.827151 3.75801,-2.16968 0.39392,-7.996881 -3.36419,-5.827151 m 19.999996,0 c -3.758006,2.16968 -0.39391,7.996891 3.36419,5.827151 3.75801,-2.16968 0.39391,-7.996881 -3.36419,-5.827151 m 20,0 c -3.758,2.16968 -0.39392,7.996891 3.36419,5.827151 3.758,-2.16968 0.39392,-7.996881 -3.36419,-5.827151 m 20,0 c -3.75801,2.16968 -0.39392,7.996891 3.36419,5.827151 3.75803,-2.16974 0.39389,-7.996881 -3.36419,-5.827151 m 20,0 c -3.75803,2.16974 -0.39391,7.996891 3.36419,5.827151 3.75806,-2.16974 0.39386,-7.996881 -3.36419,-5.827151 m 20.00384,-0.0393 c -4.24408,2.66663 0.3988,8.392461 4.35651,5.905771 4.24417,-2.666691 -0.3989,-8.392401 -4.35651,-5.905771 m 20.99616,0.0393 c -3.75809,2.16974 -0.39386,7.996891 3.36419,5.827151 3.75806,-2.16974 0.39386,-7.996881 -3.36419,-5.827151 m 20,0 c -3.75809,2.16974 -0.39386,7.996891 3.36419,5.827151 3.75806,-2.16974 0.39389,-7.996881 -3.36419,-5.827151 m 20,0 c -3.75809,2.16974 -0.39389,7.996891 3.36419,5.827151 3.75806,-2.16974 0.39386,-7.996881 -3.36419,-5.827151 m 20,0 c -3.75809,2.16974 -0.39389,7.996891 3.36419,5.827151 3.75806,-2.16974 0.39386,-7.996881 -3.36419,-5.827151 m 20,0 c -3.75806,2.16974 -0.39389,7.996891 3.36419,5.827151 3.75806,-2.16974 0.39386,-7.996881 -3.36419,-5.827151 M 83.429484,73.653415 c -3.75803,2.16974 -0.39391,7.99689 3.36419,5.82715 3.75804,-2.16974 0.39386,-7.99688 -3.36419,-5.82715 m 10,0 c -3.75803,2.16974 -0.39389,7.99689 3.36419,5.82715 3.758026,-2.16974 0.39386,-7.99688 -3.36419,-5.82715 m 9.999996,0 c -3.758046,2.16974 -0.39389,7.99689 3.36419,5.82715 3.75803,-2.16974 0.39385,-7.99688 -3.36419,-5.82715 m 20,0 c -3.75801,2.16968 -0.39391,7.99689 3.36419,5.82715 3.75801,-2.16968 0.39386,-7.99688 -3.36419,-5.82715 m 10,0 c -3.75801,2.16968 -0.39391,7.99689 3.36419,5.82715 3.75803,-2.16974 0.39386,-7.99688 -3.36419,-5.82715 m 10,0 c -3.75805,2.16974 -0.39389,7.99689 3.36419,5.82715 3.75804,-2.16974 0.39383,-7.99688 -3.36419,-5.82715 m 20,0 c -3.75806,2.16974 -0.39389,7.99689 3.36419,5.82715 3.75803,-2.16968 0.39389,-7.99688 -3.36419,-5.82715 m 31,0 c -3.75803,2.16974 -0.39386,7.99689 3.36419,5.82715 3.75806,-2.16974 0.39386,-7.99688 -3.36419,-5.82715 m 20,0 c -3.75806,2.16974 -0.39389,7.99689 3.36419,5.82715 3.75806,-2.16974 0.39389,-7.99688 -3.36419,-5.82715 m 30,0 c -3.75806,2.16974 -0.39389,7.99689 3.36419,5.82715 3.75806,-2.16974 0.39386,-7.99688 -3.36419,-5.82715 m 10,0 c -3.75803,2.16968 -0.39389,7.99689 3.36419,5.82715 3.75806,-2.16974 0.39389,-7.99688 -3.36419,-5.82715 m 20,0 c -3.75803,2.16968 -0.39389,7.99689 3.36419,5.82715 3.75806,-2.16974 0.39386,-7.99688 -3.36419,-5.82715 m -270.9999979,10 c -3.75807,2.16974 -0.39386,7.99689 3.36419,5.82715 3.7580399,-2.16974 0.39392,-7.99688 -3.36419,-5.82715 m 39.9999999,0 c -3.75801,2.16968 -0.39389,7.99689 3.36419,5.82715 3.75803,-2.16974 0.39391,-7.99688 -3.36419,-5.82715 m 20,0 c -3.75801,2.16968 -0.39389,7.99689 3.36419,5.82715 3.758032,-2.16974 0.39391,-7.99688 -3.36419,-5.82715 m 10.000002,0 c -3.758,2.16968 -0.39391,7.99689 3.36419,5.82715 3.75803,-2.16974 0.39389,-7.99688 -3.36419,-5.82715 m 10,0 c -3.75801,2.16968 -0.39391,7.99689 3.36419,5.82715 3.75804,-2.16974 0.39389,-7.99688 -3.36419,-5.82715 m 10,0 c -3.75801,2.16968 -0.39389,7.99689 3.36419,5.82715 3.758026,-2.16974 0.39391,-7.99688 -3.36419,-5.82715 m 9.999996,0 c -3.758026,2.16974 -0.39389,7.99689 3.36419,5.82715 3.75803,-2.16974 0.39389,-7.99688 -3.36419,-5.82715 m 20,0 c -3.758,2.16968 -0.39391,7.99689 3.36419,5.82715 3.75803,-2.16974 0.39389,-7.99688 -3.36419,-5.82715 m 20,0 c -3.75803,2.16974 -0.39389,7.99689 3.36419,5.82715 3.75804,-2.16974 0.39388,-7.99688 -3.36419,-5.82715 m 10,0 c -3.75803,2.16974 -0.39389,7.99689 3.36419,5.82715 3.75803,-2.16974 0.39391,-7.99688 -3.36419,-5.82715 m 10,0 c -3.75805,2.16974 -0.39389,7.99689 3.36419,5.82715 3.75803,-2.16968 0.39389,-7.99688 -3.36419,-5.82715 m 31,0 c -3.75806,2.16974 -0.39383,7.99683 3.36419,5.82715 3.75803,-2.16974 0.39386,-7.99688 -3.36419,-5.82715 m 10,0 c -3.75806,2.16974 -0.39386,7.99689 3.36419,5.82715 3.75803,-2.16974 0.39389,-7.99688 -3.36419,-5.82715 m 30,0 c -3.75809,2.16974 -0.39386,7.99689 3.36419,5.82715 3.75803,-2.16974 0.39392,-7.99688 -3.36419,-5.82715 m 20,0 c -3.75806,2.16974 -0.39386,7.99689 3.36419,5.82715 3.75803,-2.16974 0.39389,-7.99688 -3.36419,-5.82715 m 20,0 c -3.75806,2.16974 -0.39386,7.99689 3.36419,5.82715 3.75803,-2.16974 0.39389,-7.99688 -3.36419,-5.82715 m 20,0 c -3.75806,2.16974 -0.39386,7.99689 3.36419,5.82715 3.75803,-2.16968 0.39392,-7.99688 -3.36419,-5.82715 m 10,0 c -3.75806,2.16974 -0.39386,7.99689 3.36419,5.82715 3.75806,-2.16974 0.39389,-7.99688 -3.36419,-5.82715 m 10,0 c -3.75803,2.16974 -0.39386,7.99689 3.36419,5.82715 3.75803,-2.16974 0.39389,-7.99688 -3.36419,-5.82715 m 9.99999,0 c -3.75808,2.16974 -0.3938,7.99689 3.3642,5.82715 3.758,-2.16974 0.3939,-7.99688 -3.3642,-5.82715 m 10,0 c -3.758,2.16974 -0.3938,7.99689 3.3642,5.82715 3.758,-2.16968 0.3939,-7.99688 -3.3642,-5.82715 m 30,0 c -3.758,2.16974 -0.3938,7.99689 3.3642,5.82715 3.758,-2.16968 0.3939,-7.99688 -3.3642,-5.82715 m -360.9999879,10 c -3.75804,2.16968 -0.39389,7.996895 3.36419,5.82715 3.7580199,-2.16968 0.39394,-7.99688 -3.36419,-5.82715 m 9.9999999,0 c -3.7580399,2.16974 -0.39389,7.996895 3.36419,5.82715 3.75802,-2.16968 0.39394,-7.99688 -3.36419,-5.82715 m 10,0 c -3.75803,2.16968 -0.39389,7.996895 3.36419,5.82715 3.75801,-2.16968 0.39394,-7.99688 -3.36419,-5.82715 m 30,0 c -3.758,2.16968 -0.39391,7.996895 3.36419,5.82715 3.758,-2.16968 0.39391,-7.99688 -3.36419,-5.82715 m 20.000002,0 c -3.758,2.16968 -0.39391,7.996895 3.36419,5.82715 3.75801,-2.16968 0.39389,-7.99688 -3.36419,-5.82715 m 10,0 c -3.758,2.16968 -0.39391,7.996895 3.36419,5.82715 3.75801,-2.16968 0.39389,-7.99688 -3.36419,-5.82715 m 19.999996,0 c -3.758006,2.16968 -0.39389,7.996895 3.36419,5.82715 3.75801,-2.16968 0.39389,-7.99688 -3.36419,-5.82715 m 30,0 c -3.75798,2.16968 -0.39391,7.996895 3.36419,5.82715 3.75801,-2.16968 0.39391,-7.99688 -3.36419,-5.82715 m 50.00384,-0.0393 c -4.24411,2.66663 0.39884,8.392405 4.35651,5.90577 4.24417,-2.66669 -0.39887,-8.3924 -4.35651,-5.90577 m 10.99616,0.0393 c -3.75806,2.16974 -0.39383,7.996895 3.36419,5.82715 3.75806,-2.16974 0.39386,-7.99688 -3.36419,-5.82715 m 20,0 c -3.75809,2.16974 -0.39386,7.996895 3.36419,5.82715 3.75806,-2.16974 0.39389,-7.99688 -3.36419,-5.82715 m 10,0 c -3.75809,2.16974 -0.39386,7.996895 3.36419,5.82715 3.75803,-2.16968 0.39389,-7.99688 -3.36419,-5.82715 m 20,0 c -3.75809,2.16974 -0.39386,7.996895 3.36419,5.82715 3.75806,-2.16974 0.39386,-7.99688 -3.36419,-5.82715 m 10,0 c -3.75806,2.16974 -0.39389,7.996895 3.36419,5.82715 3.75806,-2.16974 0.39389,-7.99688 -3.36419,-5.82715 m 10,0 c -3.75806,2.16974 -0.39386,7.996895 3.36419,5.82715 3.75803,-2.16968 0.39386,-7.99688 -3.36419,-5.82715 m 20,0 c -3.75806,2.16974 -0.39389,7.996895 3.36419,5.82715 3.75806,-2.16974 0.39386,-7.99688 -3.36419,-5.82715 m 20,0 c -3.75806,2.16974 -0.39389,7.996895 3.36419,5.82715 3.75806,-2.16974 0.39389,-7.99688 -3.36419,-5.82715 m 29.99999,0 c -3.758,2.16974 -0.3938,7.996895 3.3642,5.82715 3.758,-2.16968 0.3939,-7.99688 -3.3642,-5.82715 m 10,0 c -3.758,2.16974 -0.3939,7.996895 3.3642,5.82715 3.7581,-2.16974 0.3939,-7.99688 -3.3642,-5.82715 m 10,0 c -3.7581,2.16974 -0.3938,7.996895 3.3642,5.82715 3.758,-2.16968 0.3939,-7.99688 -3.3642,-5.82715 M 23.429482,103.65342 c -3.75805,2.16974 -0.39386,7.99689 3.36419,5.82715 3.75806,-2.16974 0.39389,-7.99688 -3.36419,-5.82715 m 40,0 c -3.75801,2.16968 -0.39388,7.99689 3.36419,5.82715 3.758042,-2.16974 0.39385,-7.99688 -3.36419,-5.82715 m 20.000002,0 c -3.75801,2.16968 -0.39389,7.99689 3.36419,5.82715 3.75804,-2.16974 0.39385,-7.99688 -3.36419,-5.82715 m 10,0 c -3.75801,2.16968 -0.39388,7.99689 3.36419,5.82715 3.758036,-2.16974 0.39385,-7.99688 -3.36419,-5.82715 m 19.999996,0 c -3.75803,2.16974 -0.39385,7.99689 3.36419,5.82715 3.75804,-2.16974 0.39385,-7.99688 -3.36419,-5.82715 m 40,0 c -3.75803,2.16974 -0.39388,7.99689 3.36419,5.82715 3.75803,-2.16974 0.39385,-7.99688 -3.36419,-5.82715 m 41,0 c -3.75809,2.16974 -0.39386,7.99689 3.36419,5.82715 3.75806,-2.16974 0.39386,-7.99688 -3.36419,-5.82715 m 40,0 c -3.75809,2.16974 -0.39389,7.99689 3.36419,5.82715 3.75806,-2.16974 0.39392,-7.99688 -3.36419,-5.82715 m 10,0 c -3.75809,2.16974 -0.39389,7.99689 3.36419,5.82715 3.75806,-2.16974 0.39389,-7.99688 -3.36419,-5.82715 m 10,0 c -3.75806,2.16974 -0.39389,7.99689 3.36419,5.82715 3.75806,-2.16974 0.39389,-7.99688 -3.36419,-5.82715 m 30,0 c -3.75806,2.16974 -0.39389,7.99689 3.36419,5.82715 3.75806,-2.16974 0.39389,-7.99688 -3.36419,-5.82715 m 20,0 c -3.75806,2.16974 -0.39389,7.99689 3.36419,5.82715 3.75806,-2.16974 0.39389,-7.99688 -3.36419,-5.82715 m 19.99999,0 c -3.75808,2.16974 -0.3939,7.99689 3.3642,5.82715 3.7581,-2.16974 0.3939,-7.99688 -3.3642,-5.82715 m 10,0 c -3.758,2.16974 -0.3939,7.99689 3.3642,5.82715 3.758,-2.16974 0.3939,-7.99688 -3.3642,-5.82715 m -330.9999879,10 c -3.75806,2.16974 -0.39386,7.99689 3.36419,5.82715 3.7580299,-2.16968 0.39395,-7.99695 -3.36419,-5.82715 m 9.9999999,0 c -3.7580599,2.16974 -0.39386,7.99689 3.36419,5.82715 3.75803,-2.16968 0.39395,-7.99695 -3.36419,-5.82715 m 20,0 c -3.75805,2.16974 -0.39386,7.99689 3.36419,5.82715 3.758,-2.16968 0.39389,-7.99688 -3.36419,-5.82715 m 20,0 c -3.758,2.16968 -0.39391,7.99689 3.36419,5.82715 3.75798,-2.16968 0.39392,-7.99688 -3.36419,-5.82715 m 20.000002,0 c -3.75798,2.16968 -0.39392,7.99689 3.36419,5.82715 3.758,-2.16968 0.39389,-7.99688 -3.36419,-5.82715 m 10,0 c -3.758,2.16968 -0.39391,7.99689 3.36419,5.82715 3.758,-2.16968 0.39391,-7.99688 -3.36419,-5.82715 m 39.999996,0 c -3.75798,2.16968 -0.39392,7.99689 3.36419,5.82715 3.75798,-2.16968 0.39391,-7.99688 -3.36419,-5.82715 m 10,0 c -3.75798,2.16968 -0.39392,7.99689 3.36419,5.82715 3.75798,-2.16968 0.39391,-7.99688 -3.36419,-5.82715 m 10,0 c -3.75801,2.16968 -0.39391,7.99689 3.36419,5.82715 3.75801,-2.16968 0.39388,-7.99688 -3.36419,-5.82715 m 10,0 c -3.75801,2.16968 -0.39391,7.99689 3.36419,5.82715 3.75798,-2.16968 0.39391,-7.99688 -3.36419,-5.82715 m 10,0 c -3.75803,2.16974 -0.39391,7.99689 3.36419,5.82715 3.75803,-2.16968 0.39389,-7.99688 -3.36419,-5.82715 m 10,0 c -3.75809,2.16974 -0.39386,7.99689 3.36419,5.82715 3.758,-2.16968 0.39389,-7.99688 -3.36419,-5.82715 m 21,0 c -3.75806,2.16974 -0.39383,7.99689 3.36419,5.82715 3.75803,-2.16968 0.39389,-7.99688 -3.36419,-5.82715 m 10,0 c -3.75806,2.16974 -0.39386,7.99689 3.36419,5.82715 3.75803,-2.16974 0.39389,-7.99688 -3.36419,-5.82715 m 10,0 c -3.75806,2.16974 -0.39386,7.99689 3.36419,5.82715 3.75803,-2.16974 0.39389,-7.99688 -3.36419,-5.82715 m 20,0 c -3.75809,2.16974 -0.39386,7.99689 3.36419,5.82715 3.75803,-2.16968 0.39392,-7.99688 -3.36419,-5.82715 m 80,0 c -3.75803,2.16974 -0.39386,7.99689 3.36419,5.82715 3.75803,-2.16974 0.39389,-7.99688 -3.36419,-5.82715 m 9.99999,0 c -3.75805,2.16974 -0.3938,7.99689 3.3642,5.82715 3.758,-2.16968 0.3939,-7.99688 -3.3642,-5.82715 m 30,0 c -3.7581,2.16974 -0.3938,7.99683 3.3642,5.82715 3.758,-2.16968 0.3939,-7.99688 -3.3642,-5.82715 m -330.999988,10 c -3.75807,2.16974 -0.39386,7.99689 3.36419,5.82715 3.75804,-2.16974 0.3939,-7.99688 -3.36419,-5.82715 m 10,0 c -3.75806,2.16974 -0.39386,7.99689 3.36419,5.82715 3.75798,-2.16968 0.39392,-7.99688 -3.36419,-5.82715 m 20,0 c -3.75801,2.16968 -0.39392,7.99689 3.36419,5.82715 3.758,-2.16968 0.39391,-7.99688 -3.36419,-5.82715 m 10,0 c -3.758,2.16968 -0.39391,7.99689 3.36419,5.82715 3.758012,-2.16968 0.39389,-7.99688 -3.36419,-5.82715 m 10.000002,0 c -3.758,2.16968 -0.39392,7.99695 3.36419,5.82715 3.75801,-2.16968 0.39389,-7.99688 -3.36419,-5.82715 m 20,0 c -3.75801,2.16968 -0.39391,7.99689 3.36419,5.82715 3.758006,-2.16968 0.39389,-7.99688 -3.36419,-5.82715 m 79.999996,0 c -3.75809,2.16974 -0.39386,7.99689 3.36419,5.82715 3.758,-2.16968 0.39392,-7.99688 -3.36419,-5.82715 m 31,0 c -3.75806,2.16974 -0.39386,7.99689 3.36419,5.82715 3.75803,-2.16968 0.39389,-7.99688 -3.36419,-5.82715 m 20,0 c -3.75809,2.16974 -0.39386,7.99689 3.36419,5.82715 3.758,-2.16968 0.39395,-7.99688 -3.36419,-5.82715 m 20,0 c -3.75806,2.16974 -0.39389,7.99689 3.36419,5.82715 3.75803,-2.16968 0.39389,-7.99688 -3.36419,-5.82715 m 30,0 c -3.75806,2.16974 -0.39389,7.99689 3.36419,5.82715 3.75803,-2.16968 0.39389,-7.99688 -3.36419,-5.82715 m 20,0 c -3.75806,2.16974 -0.39386,7.99689 3.36419,5.82715 3.758,-2.16968 0.39395,-7.99688 -3.36419,-5.82715 m 10,0 c -3.75806,2.16974 -0.39389,7.99689 3.36419,5.82715 3.75803,-2.16968 0.39392,-7.99688 -3.36419,-5.82715 m 10,0 c -3.75803,2.16974 -0.39389,7.99689 3.36419,5.82715 3.75803,-2.16968 0.39392,-7.99688 -3.36419,-5.82715 m 39.99999,0 c -3.7581,2.16974 -0.3938,7.99689 3.3642,5.82715 3.758,-2.16968 0.3939,-7.99688 -3.3642,-5.82715 m 10,0 c -3.758,2.16974 -0.3939,7.99689 3.3642,5.82715 3.758,-2.16968 0.3939,-7.99688 -3.3642,-5.82715 m -350.999988,10 c -3.7580099,2.16968 -0.39396,7.99689 3.36419,5.82715 3.7581,-2.16971 0.3939,-7.99688 -3.36419,-5.82715 m 10,0 c -3.75801,2.16968 -0.39396,7.99689 3.36419,5.82715 3.7581,-2.16971 0.39389,-7.99688 -3.36419,-5.82715 m 30,0 c -3.758,2.16968 -0.39394,7.99689 3.36419,5.82715 3.75801,-2.16968 0.39391,-7.99688 -3.36419,-5.82715 m 20.000002,0 c -3.75798,2.16968 -0.39394,7.99689 3.36419,5.82715 3.75804,-2.16968 0.39389,-7.99688 -3.36419,-5.82715 m 10,0 c -3.75798,2.16968 -0.39394,7.99689 3.36419,5.82715 3.75803,-2.16968 0.39389,-7.99688 -3.36419,-5.82715 m 10,0 c -3.758,2.16968 -0.39392,7.99689 3.36419,5.82715 3.758036,-2.16968 0.39388,-7.99688 -3.36419,-5.82715 m 9.999996,0 c -3.757966,2.16968 -0.39396,7.99692 3.36419,5.82715 3.75803,-2.16968 0.39391,-7.99688 -3.36419,-5.82715 m 20,0 c -3.758,2.16968 -0.39394,7.99689 3.36419,5.82715 3.75803,-2.16968 0.39391,-7.99688 -3.36419,-5.82715 m 111,0 c -3.75806,2.16971 -0.39396,7.99689 3.36419,5.82715 3.758,-2.16964 0.39392,-7.99688 -3.36419,-5.82715 m 20,0 c -3.75809,2.16971 -0.39392,7.99689 3.36419,5.82715 3.758,-2.16964 0.39392,-7.99688 -3.36419,-5.82715 m 10,0 c -3.75809,2.16971 -0.39389,7.99686 3.36419,5.82715 3.758,-2.16968 0.39392,-7.99688 -3.36419,-5.82715 m 10,0 c -3.75806,2.16971 -0.39392,7.99689 3.36419,5.82715 3.75803,-2.16968 0.39389,-7.99688 -3.36419,-5.82715 m 10,0 c -3.75812,2.16974 -0.39389,7.99686 3.36419,5.82715 3.758,-2.16968 0.39392,-7.99688 -3.36419,-5.82715 m 39.99999,0 c -3.75808,2.16974 -0.3939,7.99686 3.3642,5.82715 3.758,-2.16968 0.3939,-7.99688 -3.3642,-5.82715 m 10,0 c -3.7581,2.16974 -0.3939,7.99686 3.3642,5.82715 3.758,-2.16968 0.3939,-7.99688 -3.3642,-5.82715 m 20,0 c -3.7581,2.16974 -0.3939,7.99689 3.3642,5.82715 3.758,-2.16968 0.3939,-7.99688 -3.3642,-5.82715 m 10,0 c -3.7581,2.16974 -0.3939,7.99686 3.3642,5.82715 3.758,-2.16968 0.3939,-7.99688 -3.3642,-5.82715 M 63.429482,143.65343 c -3.75803,2.16967 -0.39391,7.99688 3.36419,5.82714 3.758032,-2.16967 0.39391,-7.99688 -3.36419,-5.82714 m 10.000002,0 c -3.75801,2.16967 -0.39394,7.99688 3.36419,5.82714 3.75803,-2.16967 0.39389,-7.99685 -3.36419,-5.82714 m 20,0 c -3.75803,2.16967 -0.39392,7.99688 3.36419,5.82714 3.758006,-2.16967 0.39391,-7.99688 -3.36419,-5.82714 m 29.999996,0 c -3.75803,2.16967 -0.39392,7.99688 3.36419,5.82714 3.75803,-2.16967 0.39391,-7.99688 -3.36419,-5.82714 m 111,0 c -3.75803,2.16967 -0.39396,7.99688 3.36419,5.82714 3.75812,-2.16973 0.39389,-7.99685 -3.36419,-5.82714 m 10,0 c -3.75803,2.16967 -0.39392,7.99688 3.36419,5.82714 3.75809,-2.1697 0.39392,-7.99688 -3.36419,-5.82714 m 30,0 c -3.758,2.16967 -0.39399,7.99691 3.36419,5.82714 3.75809,-2.1697 0.39392,-7.99688 -3.36419,-5.82714 m 20,0 c -3.758,2.16967 -0.39396,7.99688 3.36419,5.82714 3.75806,-2.1697 0.39395,-7.99688 -3.36419,-5.82714 m 20,0 c -3.75803,2.16967 -0.39392,7.99688 3.36419,5.82714 3.75812,-2.16973 0.39389,-7.99685 -3.36419,-5.82714 m 9.99999,0 c -3.75799,2.16964 -0.3939,7.99688 3.3642,5.82714 3.7581,-2.1697 0.3939,-7.99688 -3.3642,-5.82714 m 10,0 c -3.758,2.16967 -0.3939,7.99688 3.3642,5.82714 3.7581,-2.1697 0.3939,-7.99685 -3.3642,-5.82714 m 10,0 c -3.758,2.1697 -0.3939,7.99685 3.3642,5.82714 3.7581,-2.16973 0.3939,-7.99688 -3.3642,-5.82714 m 10,0 c -3.758,2.16967 -0.3939,7.99688 3.3642,5.82714 3.7581,-2.16973 0.3939,-7.99685 -3.3642,-5.82714 m -330.999988,10 c -3.75806,2.1697 -0.39392,7.99688 3.36419,5.82714 3.75805,-2.1697 0.39392,-7.99688 -3.36419,-5.82714 m 60.000002,0 c -3.75803,2.16967 -0.39391,7.99688 3.36419,5.82714 3.75804,-2.1697 0.39391,-7.99688 -3.36419,-5.82714 m 19.999996,0 c -3.758026,2.16967 -0.39391,7.99688 3.36419,5.82714 3.75803,-2.16967 0.39392,-7.99688 -3.36419,-5.82714 m 10,0 c -3.75801,2.16967 -0.39392,7.99688 3.36419,5.82714 3.75803,-2.16967 0.39394,-7.99688 -3.36419,-5.82714 m 20,0 c -3.75801,2.16967 -0.39391,7.99688 3.36419,5.82714 3.75806,-2.1697 0.39391,-7.99688 -3.36419,-5.82714 m 131,0 c -3.758,2.16967 -0.39392,7.99688 3.36419,5.82714 3.75812,-2.16973 0.39389,-7.99685 -3.36419,-5.82714 m 10,0 c -3.758,2.16964 -0.39399,7.99691 3.36419,5.82714 3.75809,-2.1697 0.39392,-7.99688 -3.36419,-5.82714 m 40,0 c -3.75803,2.16967 -0.39392,7.99688 3.36419,5.82714 3.75809,-2.1697 0.39389,-7.99685 -3.36419,-5.82714 m 9.99999,0 c -3.75796,2.16964 -0.394,7.99691 3.3642,5.82714 3.7581,-2.16967 0.3939,-7.99688 -3.3642,-5.82714 m 20,0 c -3.758,2.16967 -0.3939,7.99685 3.3642,5.82714 3.7581,-2.1697 0.3939,-7.99688 -3.3642,-5.82714 m -340.9999879,10 c -3.75805,2.16967 -0.39393,7.99688 3.36419,5.82714 3.7580499,-2.16967 0.39392,-7.99688 -3.36419,-5.82714 m 9.9999999,0 c -3.7580499,2.16967 -0.39392,7.99688 3.36419,5.82714 3.75805,-2.16967 0.39392,-7.99688 -3.36419,-5.82714 m 20,0 c -3.75806,2.1697 -0.39391,7.99688 3.36419,5.82714 3.75803,-2.16967 0.39392,-7.99688 -3.36419,-5.82714 m 20,0 c -3.75801,2.16967 -0.39391,7.99688 3.36419,5.82714 3.758,-2.16967 0.39394,-7.99688 -3.36419,-5.82714 m 10,0 c -3.75803,2.16967 -0.39391,7.99688 3.36419,5.82714 3.758012,-2.16967 0.39394,-7.99688 -3.36419,-5.82714 m 30.000002,0 c -3.75801,2.16967 -0.39391,7.99688 3.36419,5.82714 3.758006,-2.16967 0.39395,-7.99688 -3.36419,-5.82714 m 150.999996,0 c -3.75803,2.16967 -0.39392,7.99688 3.36419,5.82714 3.75809,-2.1697 0.39392,-7.99688 -3.36419,-5.82714 m 10,0 c -3.758,2.16964 -0.39392,7.99688 3.36419,5.82714 3.75809,-2.1697 0.39389,-7.99685 -3.36419,-5.82714 m 10,0 c -3.758,2.16967 -0.39392,7.99688 3.36419,5.82714 3.75812,-2.16973 0.39389,-7.99685 -3.36419,-5.82714 m 20,0 c -3.75797,2.16964 -0.39399,7.99691 3.36419,5.82714 3.75809,-2.1697 0.39392,-7.99688 -3.36419,-5.82714 m 20,0 c -3.75803,2.16967 -0.39392,7.99688 3.36419,5.82714 3.75806,-2.1697 0.39389,-7.99685 -3.36419,-5.82714 m 19.99999,0 c -3.75799,2.16964 -0.394,7.99691 3.3642,5.82714 3.7581,-2.16967 0.3939,-7.99688 -3.3642,-5.82714 m 10,0 c -3.758,2.16967 -0.3939,7.99691 3.3642,5.82714 3.7581,-2.1697 0.3939,-7.99685 -3.3642,-5.82714 m 10,0 c -3.758,2.16967 -0.3939,7.99685 3.3642,5.82714 3.7581,-2.1697 0.3939,-7.99688 -3.3642,-5.82714 m 20,0 c -3.758,2.16967 -0.3939,7.99688 3.3642,5.82714 3.7581,-2.1697 0.3939,-7.99688 -3.3642,-5.82714 m -340.999988,10 c -3.75805,2.16967 -0.39393,7.99688 3.36419,5.82714 3.75805,-2.16967 0.39392,-7.99688 -3.36419,-5.82714 m 20,0 c -3.75803,2.16967 -0.39391,7.99688 3.36419,5.82714 3.75803,-2.16967 0.39392,-7.99688 -3.36419,-5.82714 m 69.999998,0 c -3.75801,2.16967 -0.39392,7.99688 3.36419,5.82714 3.758,-2.16967 0.39395,-7.99688 -3.36419,-5.82714 m 181,0 c -3.75803,2.16967 -0.39392,7.99688 3.36419,5.82714 3.75806,-2.16967 0.39395,-7.99688 -3.36419,-5.82714 m 10,0 c -3.75803,2.16967 -0.39392,7.99688 3.36419,5.82714 3.75806,-2.1697 0.39392,-7.99688 -3.36419,-5.82714 m 10,0 c -3.75803,2.16967 -0.39392,7.99688 3.36419,5.82714 3.75809,-2.1697 0.39389,-7.99685 -3.36419,-5.82714 m 9.99999,0 c -3.75799,2.16967 -0.3939,7.99688 3.3642,5.82714 3.758,-2.16967 0.394,-7.99688 -3.3642,-5.82714 m 30,0 c -3.758,2.16967 -0.3939,7.99688 3.3642,5.82714 3.7581,-2.1697 0.3939,-7.99685 -3.3642,-5.82714 m -351.0038479,10 c -3.95644,2.25524 -0.85341,9.23568 3.37191,6.82714 3.9564999,-2.25528 0.85336,-9.23562 -3.37191,-6.82714 m 19.9999999,0 c -3.95644,2.25524 -0.8534,9.23565 3.37191,6.82714 3.95651,-2.25528 0.85335,-9.23562 -3.37191,-6.82714 m 10,0 c -3.95645,2.25524 -0.85341,9.23568 3.37191,6.82714 3.95645,-2.25528 0.85338,-9.23565 -3.37191,-6.82714 m 10,0 c -3.95647,2.25528 -0.85337,9.23565 3.37191,6.82714 3.95647,-2.25528 0.85337,-9.23565 -3.37191,-6.82714 m 10,0 c -3.95646,2.25524 -0.85338,9.23565 3.37191,6.82714 3.95647,-2.25528 0.85337,-9.23565 -3.37191,-6.82714 m 10,0 c -3.95646,2.25528 -0.85338,9.23565 3.37191,6.82714 3.956472,-2.25528 0.853372,-9.23565 -3.37191,-6.82714 m 20.000002,0 c -3.95646,2.25528 -0.85337,9.23565 3.37191,6.82714 3.95647,-2.25528 0.85337,-9.23565 -3.37191,-6.82714 m 10,0 c -3.95647,2.25528 -0.85337,9.23565 3.37191,6.82714 3.956466,-2.25528 0.85337,-9.23565 -3.37191,-6.82714 m 9.999996,0 c -3.956456,2.25524 -0.85337,9.23565 3.37191,6.82714 3.95647,-2.25528 0.85335,-9.23565 -3.37191,-6.82714 m 10,0 c -3.95646,2.25528 -0.85337,9.23565 3.37191,6.82714 3.95645,-2.25528 0.85337,-9.23565 -3.37191,-6.82714 m 10,0 c -3.95646,2.25528 -0.85337,9.23565 3.37191,6.82714 3.95649,-2.25528 0.85335,-9.23565 -3.37191,-6.82714 m 130.99998,0 c -3.95642,2.25524 -0.85339,9.23568 3.37195,6.82714 3.95654,-2.25531 0.85333,-9.23565 -3.37195,-6.82714 m 10,0 c -3.95645,2.25524 -0.85336,9.23565 3.37195,6.82714 3.95654,-2.25531 0.85336,-9.23565 -3.37195,-6.82714 m 10,0 c -3.95639,2.25521 -0.85342,9.23568 3.37195,6.82714 3.95657,-2.25531 0.85333,-9.23562 -3.37195,-6.82714 m 20,0 c -3.95645,2.25524 -0.85339,9.23565 3.37195,6.82714 3.95657,-2.25531 0.8533,-9.23562 -3.37195,-6.82714 m 10,0 c -3.95645,2.25524 -0.85339,9.23565 3.37195,6.82714 3.95657,-2.25531 0.8533,-9.23562 -3.37195,-6.82714 m 10,0 c -3.95642,2.25524 -0.85339,9.23565 3.37195,6.82714 3.9566,-2.25534 0.85327,-9.23559 -3.37195,-6.82714 m 29.99997,0 c -3.9564,2.25521 -0.8534,9.23571 3.372,6.82714 3.9565,-2.25531 0.8533,-9.23565 -3.372,-6.82714 m -330.996088,11 c -3.7580499,2.16967 -0.39392,7.99688 3.36419,5.82714 3.75804,-2.16967 0.39393,-7.99688 -3.36419,-5.82714 m 10,0 c -3.75805,2.16967 -0.39394,7.99688 3.36419,5.82714 3.75804,-2.16967 0.39394,-7.99688 -3.36419,-5.82714 m 10,0 c -3.75806,2.1697 -0.39392,7.99688 3.36419,5.82714 3.75804,-2.16967 0.39394,-7.99688 -3.36419,-5.82714 m 20,0 c -3.75803,2.16967 -0.39392,7.99688 3.36419,5.82714 3.75801,-2.16967 0.39392,-7.99688 -3.36419,-5.82714 m 20.000002,0 c -3.758,2.16967 -0.39396,7.99688 3.36419,5.82714 3.75803,-2.16967 0.39391,-7.99688 -3.36419,-5.82714 m 39.999996,0 c -3.75801,2.16967 -0.39392,7.99688 3.36419,5.82714 3.758,-2.16967 0.39394,-7.99688 -3.36419,-5.82714 m 10,0 c -3.75803,2.16967 -0.39392,7.99688 3.36419,5.82714 3.75803,-2.16967 0.39394,-7.99688 -3.36419,-5.82714 m 10,0 c -3.75801,2.16967 -0.39392,7.99688 3.36419,5.82714 3.75803,-2.16967 0.39392,-7.99688 -3.36419,-5.82714 m 111,0 c -3.75806,2.1697 -0.39392,7.99688 3.36419,5.82714 3.75806,-2.1697 0.39392,-7.99688 -3.36419,-5.82714 m 20,0 c -3.75803,2.16967 -0.39392,7.99688 3.36419,5.82714 3.75812,-2.16973 0.39389,-7.99685 -3.36419,-5.82714 m 10,0 c -3.75803,2.16967 -0.39396,7.99688 3.36419,5.82714 3.75809,-2.1697 0.39392,-7.99688 -3.36419,-5.82714 m 10,0 c -3.758,2.16967 -0.39396,7.99688 3.36419,5.82714 3.75809,-2.1697 0.39392,-7.99688 -3.36419,-5.82714 m 49.99999,0 c -3.758,2.16967 -0.3939,7.99688 3.3642,5.82714 3.7581,-2.1697 0.3939,-7.99688 -3.3642,-5.82714 m 10,0 c -3.758,2.1697 -0.3938,7.99685 3.3642,5.82714 3.7581,-2.1697 0.3939,-7.99688 -3.3642,-5.82714 m 10,0 c -3.758,2.16967 -0.3939,7.99688 3.3642,5.82714 3.7581,-2.1697 0.3939,-7.99685 -3.3642,-5.82714 m -350.9999879,10 c -3.75805,2.16967 -0.39391,7.99685 3.36419,5.82714 3.7580499,-2.16967 0.39392,-7.99688 -3.36419,-5.82714 m 9.9999999,0 c -3.7580699,2.1697 -0.39389,7.99685 3.36419,5.82714 3.75805,-2.16967 0.39392,-7.99688 -3.36419,-5.82714 m 10,0 c -3.75806,2.1697 -0.39391,7.99685 3.36419,5.82714 3.75804,-2.16967 0.39392,-7.99688 -3.36419,-5.82714 m 20,0 c -3.75801,2.16967 -0.39392,7.99688 3.36419,5.82714 3.75801,-2.16967 0.39394,-7.99688 -3.36419,-5.82714 m 20,0 c -3.75801,2.16967 -0.39392,7.99688 3.36419,5.82714 3.758012,-2.16967 0.39394,-7.99688 -3.36419,-5.82714 m 20.000002,0 c -3.75801,2.16967 -0.39392,7.99688 3.36419,5.82714 3.75801,-2.16967 0.39392,-7.99688 -3.36419,-5.82714 m 10,0 c -3.75801,2.16967 -0.39394,7.99688 3.36419,5.82714 3.757996,-2.16967 0.39395,-7.99688 -3.36419,-5.82714 m 9.999996,0 c -3.758006,2.16967 -0.39394,7.99688 3.36419,5.82714 3.758,-2.16967 0.39394,-7.99688 -3.36419,-5.82714 m 20,0 c -3.75801,2.16967 -0.39394,7.99688 3.36419,5.82714 3.75801,-2.16967 0.39394,-7.99688 -3.36419,-5.82714 m 10,0 c -3.758,2.16967 -0.39392,7.99688 3.36419,5.82714 3.75803,-2.16967 0.39394,-7.99688 -3.36419,-5.82714 m 101,0 c -3.75806,2.1697 -0.39392,7.99685 3.36419,5.82714 3.75809,-2.1697 0.39389,-7.99685 -3.36419,-5.82714 m 10,0 c -3.75806,2.1697 -0.39389,7.99685 3.36419,5.82714 3.75809,-2.1697 0.39392,-7.99688 -3.36419,-5.82714 m 50,0 c -3.75803,2.16967 -0.39389,7.99685 3.36419,5.82714 3.75806,-2.1697 0.39395,-7.99688 -3.36419,-5.82714 m 10,0 c -3.75806,2.1697 -0.39389,7.99685 3.36419,5.82714 3.75806,-2.1697 0.39392,-7.99688 -3.36419,-5.82714 m 10,0 c -3.75806,2.1697 -0.39389,7.99685 3.36419,5.82714 3.75809,-2.1697 0.39389,-7.99685 -3.36419,-5.82714 m 19.99999,0 c -3.758,2.16967 -0.3939,7.99688 3.3642,5.82714 3.7581,-2.1697 0.3939,-7.99688 -3.3642,-5.82714 m -330.9999879,10 c -3.75804,2.16967 -0.39395,7.99688 3.36419,5.82714 3.7580399,-2.16967 0.39393,-7.99688 -3.36419,-5.82714 m 29.9999999,0 c -3.75805,2.1697 -0.39392,7.99688 3.36419,5.82714 3.75804,-2.16967 0.39392,-7.99688 -3.36419,-5.82714 m 20,0 c -3.75803,2.16967 -0.39391,7.99688 3.36419,5.82714 3.75801,-2.16967 0.39392,-7.99688 -3.36419,-5.82714 m 30.000002,0 c -3.75803,2.16967 -0.39391,7.99688 3.36419,5.82714 3.75803,-2.16967 0.39392,-7.99688 -3.36419,-5.82714 m 10,0 c -3.75803,2.16967 -0.39391,7.99688 3.36419,5.82714 3.758006,-2.16967 0.39394,-7.99688 -3.36419,-5.82714 m 9.999996,0 c -3.758026,2.16967 -0.39392,7.99688 3.36419,5.82714 3.75801,-2.16967 0.39392,-7.99688 -3.36419,-5.82714 m 20,0 c -3.75803,2.16967 -0.39391,7.99688 3.36419,5.82714 3.75803,-2.16967 0.39394,-7.99688 -3.36419,-5.82714 m 10,0 c -3.75801,2.16967 -0.39391,7.99688 3.36419,5.82714 3.75803,-2.16967 0.39392,-7.99688 -3.36419,-5.82714 m 101,0 c -3.75803,2.16967 -0.39396,7.99688 3.36419,5.82714 3.75812,-2.16973 0.39389,-7.99685 -3.36419,-5.82714 m 30,0 c -3.75803,2.16967 -0.39392,7.99688 3.36419,5.82714 3.75812,-2.16973 0.39386,-7.99685 -3.36419,-5.82714 m 10,0 c -3.758,2.16967 -0.39399,7.99691 3.36419,5.82714 3.75809,-2.1697 0.39392,-7.99688 -3.36419,-5.82714 m 10,0 c -3.758,2.16964 -0.39399,7.99691 3.36419,5.82714 3.75809,-2.1697 0.39392,-7.99685 -3.36419,-5.82714 m 30,0 c -3.75803,2.16967 -0.39392,7.99688 3.36419,5.82714 3.75812,-2.16973 0.39389,-7.99685 -3.36419,-5.82714 m 9.99999,0 c -3.75799,2.16967 -0.394,7.99691 3.3642,5.82714 3.7581,-2.1697 0.3939,-7.99688 -3.3642,-5.82714 m 40,0 c -3.758,2.16967 -0.3939,7.99688 3.3642,5.82714 3.7581,-2.1697 0.3939,-7.99685 -3.3642,-5.82714 m -360.9999879,10 c -3.75805,2.16967 -0.39394,7.99688 3.36419,5.82714 3.7580699,-2.1697 0.39391,-7.99685 -3.36419,-5.82714 m 19.9999999,0 c -3.75805,2.16967 -0.39393,7.99688 3.36419,5.82714 3.75806,-2.1697 0.39392,-7.99688 -3.36419,-5.82714 m 20,0 c -3.75803,2.16967 -0.39389,7.99688 3.36419,5.82714 3.75803,-2.16967 0.39391,-7.99688 -3.36419,-5.82714 m 10,0 c -3.75801,2.16967 -0.39391,7.99688 3.36419,5.82714 3.75801,-2.16967 0.39391,-7.99688 -3.36419,-5.82714 m 10,0 c -3.75803,2.16967 -0.39391,7.99688 3.36419,5.82714 3.758032,-2.16967 0.39391,-7.99688 -3.36419,-5.82714 m 20.000002,0 c -3.75803,2.16967 -0.39391,7.99688 3.36419,5.82714 3.75803,-2.16967 0.39389,-7.99685 -3.36419,-5.82714 m 29.999996,0 c -3.75801,2.16967 -0.39391,7.99688 3.36419,5.82714 3.75801,-2.16967 0.39392,-7.99688 -3.36419,-5.82714 m 20,0 c -3.75801,2.16967 -0.39391,7.99688 3.36419,5.82714 3.75804,-2.16967 0.39391,-7.99688 -3.36419,-5.82714 m 101,0 c -3.75803,2.16967 -0.39396,7.99688 3.36419,5.82714 3.75812,-2.16973 0.39386,-7.99685 -3.36419,-5.82714 m 20,0 c -3.75803,2.16967 -0.39392,7.99688 3.36419,5.82714 3.75812,-2.1697 0.39389,-7.99685 -3.36419,-5.82714 m 10,0 c -3.75803,2.16967 -0.39392,7.99688 3.36419,5.82714 3.75815,-2.16973 0.39386,-7.99685 -3.36419,-5.82714 m 10,0 c -3.758,2.16967 -0.39396,7.99691 3.36419,5.82714 3.75812,-2.16973 0.39389,-7.99685 -3.36419,-5.82714 m 30,0 c -3.75803,2.16967 -0.39392,7.99688 3.36419,5.82714 3.75809,-2.1697 0.39389,-7.99685 -3.36419,-5.82714 m 10,0 c -3.75803,2.16967 -0.39392,7.99688 3.36419,5.82714 3.75812,-2.16973 0.39386,-7.99685 -3.36419,-5.82714 m 9.99999,0 c -3.75799,2.16967 -0.3939,7.99688 3.3642,5.82714 3.7581,-2.1697 0.3939,-7.99685 -3.3642,-5.82714 m 10,0 c -3.758,2.16967 -0.3939,7.99688 3.3642,5.82714 3.7581,-2.1697 0.3939,-7.99685 -3.3642,-5.82714 m 10,0 c -3.758,2.1697 -0.3938,7.99685 3.3642,5.82714 3.7581,-2.16973 0.3939,-7.99685 -3.3642,-5.82714 m 20,0 c -3.758,2.16967 -0.3939,7.99688 3.3642,5.82714 3.7581,-2.1697 0.3939,-7.99685 -3.3642,-5.82714 m -360.9999879,10 c -3.75803,2.16967 -0.39393,7.99688 3.36419,5.82714 3.7580499,-2.16967 0.39392,-7.99688 -3.36419,-5.82714 m 39.9999999,0 c -3.75803,2.16967 -0.39391,7.99688 3.36419,5.82714 3.75801,-2.16967 0.39394,-7.99688 -3.36419,-5.82714 m 79.999998,0 c -3.75801,2.16967 -0.39392,7.99688 3.36419,5.82714 3.75801,-2.16967 0.39394,-7.99688 -3.36419,-5.82714 m 121,0 c -3.75806,2.16967 -0.39392,7.99688 3.36419,5.82714 3.75806,-2.1697 0.39392,-7.99688 -3.36419,-5.82714 m 10,0 c -3.75803,2.16967 -0.39389,7.99682 3.36419,5.82714 3.75809,-2.1697 0.39392,-7.99688 -3.36419,-5.82714 m 20,0 c -3.758,2.16967 -0.39396,7.99688 3.36419,5.82714 3.75809,-2.1697 0.39392,-7.99688 -3.36419,-5.82714 m 10,0 c -3.758,2.16964 -0.39396,7.99688 3.36419,5.82714 3.75809,-2.1697 0.39392,-7.99688 -3.36419,-5.82714 m 10,0 c -3.75803,2.16967 -0.39392,7.99688 3.36419,5.82714 3.75806,-2.16967 0.39395,-7.99688 -3.36419,-5.82714 m 10,0 c -3.75803,2.16967 -0.39392,7.99688 3.36419,5.82714 3.75806,-2.1697 0.39392,-7.99688 -3.36419,-5.82714 m 10,0 c -3.75803,2.16967 -0.39392,7.99688 3.36419,5.82714 3.75809,-2.1697 0.39392,-7.99685 -3.36419,-5.82714 m 9.99999,0 c -3.75799,2.16967 -0.3939,7.99688 3.3642,5.82714 3.758,-2.16967 0.394,-7.99688 -3.3642,-5.82714 m 20,0 c -3.758,2.1697 -0.3938,7.99682 3.3642,5.82714 3.7581,-2.1697 0.3939,-7.99688 -3.3642,-5.82714 m 10,0 c -3.758,2.16967 -0.3939,7.99688 3.3642,5.82714 3.7581,-2.1697 0.3939,-7.99688 -3.3642,-5.82714 m 10,0 c -3.758,2.16967 -0.3939,7.99688 3.3642,5.82714 3.7581,-2.1697 0.3939,-7.99688 -3.3642,-5.82714 m -360.9999879,10 c -3.75805,2.16967 -0.39393,7.99688 3.36419,5.82714 3.7580599,-2.16967 0.39392,-7.99688 -3.36419,-5.82714 m 19.9999999,0 c -3.75805,2.16967 -0.39392,7.99688 3.36419,5.82714 3.75804,-2.16967 0.39392,-7.99688 -3.36419,-5.82714 m 10,0 c -3.75807,2.16967 -0.39391,7.99688 3.36419,5.82714 3.75804,-2.16967 0.39391,-7.99688 -3.36419,-5.82714 m 10,0 c -3.75803,2.16967 -0.39391,7.99688 3.36419,5.82714 3.75804,-2.16967 0.39391,-7.99688 -3.36419,-5.82714 m 10,0 c -3.75803,2.16967 -0.39391,7.99688 3.36419,5.82714 3.75803,-2.16967 0.39391,-7.99688 -3.36419,-5.82714 m 10,0 c -3.75803,2.16967 -0.39391,7.99688 3.36419,5.82714 3.758042,-2.16967 0.39391,-7.99688 -3.36419,-5.82714 m 10.000002,0 c -3.75801,2.16967 -0.39394,7.99688 3.36419,5.82714 3.75804,-2.16967 0.39389,-7.99682 -3.36419,-5.82714 m 20,0 c -3.75803,2.16967 -0.39392,7.99688 3.36419,5.82714 3.758026,-2.16967 0.39391,-7.99688 -3.36419,-5.82714 m 9.999996,0 c -3.758026,2.16967 -0.39392,7.99688 3.36419,5.82714 3.75803,-2.16967 0.39391,-7.99688 -3.36419,-5.82714 m 20,0 c -3.75803,2.16967 -0.39392,7.99688 3.36419,5.82714 3.75804,-2.16967 0.39391,-7.99688 -3.36419,-5.82714 m 20,0 c -3.75803,2.16967 -0.39392,7.99688 3.36419,5.82714 3.75803,-2.16967 0.39392,-7.99688 -3.36419,-5.82714 m 20,0 c -3.75803,2.16967 -0.39391,7.99688 3.36419,5.82714 3.75809,-2.16967 0.39389,-7.99688 -3.36419,-5.82714 m 41,0 c -3.75806,2.16967 -0.39392,7.99688 3.36419,5.82714 3.75809,-2.16967 0.39389,-7.99682 -3.36419,-5.82714 m 30,0 c -3.75803,2.16967 -0.39396,7.99688 3.36419,5.82714 3.75812,-2.16973 0.39389,-7.99682 -3.36419,-5.82714 m 20,0 c -3.75803,2.16967 -0.39389,7.99682 3.36419,5.82714 3.75809,-2.16967 0.39389,-7.99682 -3.36419,-5.82714 m 40,0 c -3.75803,2.16967 -0.39392,7.99688 3.36419,5.82714 3.75806,-2.16967 0.39395,-7.99688 -3.36419,-5.82714 m 20,0 c -3.75803,2.16967 -0.39392,7.99688 3.36419,5.82714 3.75809,-2.16967 0.39389,-7.99682 -3.36419,-5.82714 m 9.99999,0 c -3.75799,2.16967 -0.3939,7.99688 3.3642,5.82714 3.7581,-2.16967 0.3939,-7.99688 -3.3642,-5.82714 m 10,0 c -3.758,2.16967 -0.3939,7.99688 3.3642,5.82714 3.7581,-2.16967 0.3939,-7.99682 -3.3642,-5.82714 m 10,0 c -3.758,2.16967 -0.3938,7.99682 3.3642,5.82714 3.7581,-2.16967 0.3939,-7.99682 -3.3642,-5.82714 m 10,0 c -3.758,2.16967 -0.3939,7.99688 3.3642,5.82714 3.7581,-2.16967 0.3939,-7.99682 -3.3642,-5.82714 m -350.9999879,10 c -3.75805,2.16967 -0.39392,7.99688 3.36419,5.82714 3.7580499,-2.16967 0.39393,-7.99688 -3.36419,-5.82714 m 9.9999999,0 c -3.7580699,2.16967 -0.39391,7.99682 3.36419,5.82714 3.75805,-2.16967 0.39393,-7.99688 -3.36419,-5.82714 m 30,0 c -3.75803,2.16967 -0.39391,7.99688 3.36419,5.82714 3.75804,-2.16967 0.39391,-7.99688 -3.36419,-5.82714 m 30.000002,0 c -3.75801,2.16967 -0.39394,7.99688 3.36419,5.82714 3.75804,-2.16967 0.39389,-7.99682 -3.36419,-5.82714 m 10,0 c -3.75803,2.16967 -0.39391,7.99688 3.36419,5.82714 3.75804,-2.16967 0.39389,-7.99682 -3.36419,-5.82714 m 39.999996,0 c -3.75803,2.16967 -0.39392,7.99688 3.36419,5.82714 3.75804,-2.16967 0.39391,-7.99688 -3.36419,-5.82714 m 20,0 c -3.75803,2.16967 -0.39392,7.99688 3.36419,5.82714 3.75803,-2.16967 0.39391,-7.99688 -3.36419,-5.82714 m 40.00384,-0.0394 c -4.24408,2.66656 0.39877,8.39251 4.35651,5.90588 4.2442,-2.66669 -0.39884,-8.39252 -4.35651,-5.90588 m 10.99616,0.0394 c -3.75806,2.16967 -0.39389,7.99682 3.36419,5.82714 3.75812,-2.16973 0.39389,-7.99682 -3.36419,-5.82714 m 20,0 c -3.75806,2.16967 -0.39389,7.99682 3.36419,5.82714 3.75809,-2.16967 0.39392,-7.99688 -3.36419,-5.82714 m 10,0 c -3.75806,2.16967 -0.39392,7.99688 3.36419,5.82714 3.75809,-2.16967 0.39389,-7.99682 -3.36419,-5.82714 m 20,0 c -3.75806,2.16967 -0.39389,7.99682 3.36419,5.82714 3.75809,-2.16967 0.39392,-7.99688 -3.36419,-5.82714 m 20,0 c -3.75806,2.16967 -0.39389,7.99682 3.36419,5.82714 3.75812,-2.16973 0.39389,-7.99682 -3.36419,-5.82714 m 20,0 c -3.75803,2.16967 -0.39396,7.99688 3.36419,5.82714 3.75809,-2.16967 0.39392,-7.99688 -3.36419,-5.82714 m 20,0 c -3.75806,2.16967 -0.39389,7.99682 3.36419,5.82714 3.75806,-2.16967 0.39389,-7.99682 -3.36419,-5.82714 m 29.99999,0 c -3.758,2.16967 -0.3939,7.99688 3.3642,5.82714 3.7581,-2.16967 0.3939,-7.99682 -3.3642,-5.82714 m 10,0 c -3.7581,2.16967 -0.3938,7.99682 3.3642,5.82714 3.7581,-2.16967 0.3939,-7.99688 -3.3642,-5.82714 m -320.999988,10 c -3.75805,2.16967 -0.39394,7.99688 3.36419,5.82714 3.75804,-2.16967 0.39392,-7.99688 -3.36419,-5.82714 m 40,0 c -3.75803,2.16967 -0.39392,7.99688 3.36419,5.82714 3.758032,-2.16967 0.39392,-7.99688 -3.36419,-5.82714 m 30.000002,0 c -3.75801,2.16967 -0.39392,7.99688 3.36419,5.82714 3.758006,-2.16967 0.39394,-7.99688 -3.36419,-5.82714 m 19.999996,0 c -3.75801,2.16967 -0.39392,7.99688 3.36419,5.82714 3.758,-2.16967 0.39394,-7.99688 -3.36419,-5.82714 m 10,0 c -3.75801,2.16967 -0.39392,7.99688 3.36419,5.82714 3.75803,-2.16967 0.39394,-7.99688 -3.36419,-5.82714 m 10,0 c -3.75801,2.16967 -0.39392,7.99688 3.36419,5.82714 3.75803,-2.16967 0.39392,-7.99688 -3.36419,-5.82714 m 20,0 c -3.75801,2.16967 -0.39392,7.99688 3.36419,5.82714 3.75803,-2.16967 0.39392,-7.99688 -3.36419,-5.82714 m 41,0 c -3.75806,2.16967 -0.39392,7.99688 3.36419,5.82714 3.75812,-2.16973 0.39389,-7.99682 -3.36419,-5.82714 m 40,0 c -3.75803,2.16967 -0.39396,7.99688 3.36419,5.82714 3.75812,-2.16973 0.39389,-7.99682 -3.36419,-5.82714 m 10,0 c -3.75806,2.16967 -0.39392,7.99688 3.36419,5.82714 3.75809,-2.16967 0.39392,-7.99688 -3.36419,-5.82714 m 10,0 c -3.75803,2.16967 -0.39392,7.99688 3.36419,5.82714 3.75809,-2.16967 0.39392,-7.99688 -3.36419,-5.82714 m 10,0 c -3.75803,2.16967 -0.39392,7.99688 3.36419,5.82714 3.75812,-2.16973 0.39389,-7.99682 -3.36419,-5.82714 m 20,0 c -3.758,2.16967 -0.39396,7.99688 3.36419,5.82714 3.75809,-2.16967 0.39392,-7.99688 -3.36419,-5.82714 m 10,0 c -3.75803,2.16967 -0.39392,7.99688 3.36419,5.82714 3.75806,-2.16967 0.39395,-7.99688 -3.36419,-5.82714 m 29.99999,0 c -3.75799,2.16967 -0.3939,7.99688 3.3642,5.82714 3.7581,-2.16967 0.3939,-7.99688 -3.3642,-5.82714 m 10,0 c -3.758,2.16967 -0.3939,7.99688 3.3642,5.82714 3.7581,-2.16967 0.3939,-7.99682 -3.3642,-5.82714 m -310.999988,10 c -3.75805,2.16967 -0.39393,7.99688 3.36419,5.82714 3.75804,-2.16967 0.39394,-7.99688 -3.36419,-5.82714 m 30,0 c -3.75805,2.16967 -0.39391,7.99688 3.36419,5.82714 3.75801,-2.16967 0.39392,-7.99688 -3.36419,-5.82714 m 30.000002,0 c -3.75805,2.16967 -0.39391,7.99688 3.36419,5.82714 3.75803,-2.16967 0.39391,-7.99688 -3.36419,-5.82714 m 10,0 c -3.75805,2.16967 -0.39391,7.99688 3.36419,5.82714 3.758006,-2.16967 0.39392,-7.99688 -3.36419,-5.82714 m 19.999996,0 c -3.75803,2.16967 -0.39391,7.99688 3.36419,5.82714 3.758,-2.16967 0.39394,-7.99688 -3.36419,-5.82714 m 10,0 c -3.75805,2.16967 -0.39391,7.99688 3.36419,5.82714 3.75803,-2.16967 0.39392,-7.99688 -3.36419,-5.82714 m 20,0 c -3.75803,2.16967 -0.39391,7.99688 3.36419,5.82714 3.75801,-2.16967 0.39394,-7.99688 -3.36419,-5.82714 m 10,0 c -3.75803,2.16967 -0.39391,7.99688 3.36419,5.82714 3.75803,-2.16967 0.39391,-7.99688 -3.36419,-5.82714 m 10,0 c -3.75805,2.16967 -0.39391,7.99682 3.36419,5.82714 3.75809,-2.16967 0.39392,-7.99688 -3.36419,-5.82714 m 10,0 c -3.75803,2.16967 -0.39392,7.99688 3.36419,5.82714 3.75809,-2.16967 0.39392,-7.99688 -3.36419,-5.82714 m 10.00384,-0.0394 c -4.24408,2.66656 0.39874,8.39258 4.35651,5.90588 4.24423,-2.66669 -0.39884,-8.39252 -4.35651,-5.90588 m 10.99616,0.0394 c -3.75803,2.16967 -0.39392,7.99688 3.36419,5.82714 3.75812,-2.16967 0.39389,-7.99682 -3.36419,-5.82714 m 10,0 c -3.75803,2.16967 -0.39392,7.99688 3.36419,5.82714 3.75809,-2.16967 0.39392,-7.99688 -3.36419,-5.82714 m 10,0 c -3.75806,2.16967 -0.39389,7.99682 3.36419,5.82714 3.75809,-2.16967 0.39392,-7.99688 -3.36419,-5.82714 m 20,0 c -3.75803,2.16967 -0.39396,7.99688 3.36419,5.82714 3.75809,-2.16967 0.39389,-7.99682 -3.36419,-5.82714 m 30,0 c -3.75803,2.16967 -0.39392,7.99688 3.36419,5.82714 3.75812,-2.16973 0.39389,-7.99682 -3.36419,-5.82714 m 40,0 c -3.75803,2.16967 -0.39392,7.99688 3.36419,5.82714 3.75806,-2.16967 0.39392,-7.99682 -3.36419,-5.82714 m 10,0 c -3.75803,2.16967 -0.39392,7.99688 3.36419,5.82714 3.75809,-2.16967 0.39389,-7.99682 -3.36419,-5.82714 m 9.99999,0 c -3.75799,2.16967 -0.3939,7.99688 3.3642,5.82714 3.758,-2.16967 0.3939,-7.99688 -3.3642,-5.82714 m 30,0 c -3.758,2.16967 -0.3939,7.99688 3.3642,5.82714 3.7581,-2.16967 0.3939,-7.99682 -3.3642,-5.82714 m 10,0 c -3.758,2.16967 -0.3939,7.99688 3.3642,5.82714 3.7581,-2.16967 0.3939,-7.99688 -3.3642,-5.82714 m -360.9999879,10 c -3.75805,2.16967 -0.39393,7.99688 3.36419,5.82714 3.7580499,-2.16967 0.39394,-7.99688 -3.36419,-5.82714 m 9.9999999,0 c -3.7580599,2.16967 -0.39392,7.99688 3.36419,5.82714 3.75805,-2.16967 0.39394,-7.99688 -3.36419,-5.82714 m 10,0 c -3.75805,2.16967 -0.39393,7.99688 3.36419,5.82714 3.75805,-2.16967 0.39395,-7.99688 -3.36419,-5.82714 m 30,0 c -3.75803,2.16967 -0.39391,7.99688 3.36419,5.82714 3.75803,-2.16967 0.39391,-7.99688 -3.36419,-5.82714 m 10,0 c -3.75805,2.16967 -0.39391,7.99688 3.36419,5.82714 3.758042,-2.16967 0.39391,-7.99688 -3.36419,-5.82714 m 109.999998,0 c -3.75806,2.16967 -0.39392,7.99688 3.36419,5.82714 3.75809,-2.16967 0.39392,-7.99688 -3.36419,-5.82714 m 10.00384,-0.0394 c -4.24408,2.66656 0.39877,8.39251 4.35651,5.90588 4.2442,-2.66669 -0.39884,-8.39252 -4.35651,-5.90588 m 20.99616,0.0394 c -3.75806,2.16967 -0.39392,7.99688 3.36419,5.82714 3.75809,-2.16967 0.39389,-7.99682 -3.36419,-5.82714 m 10,0 c -3.75806,2.16967 -0.39389,7.99682 3.36419,5.82714 3.75809,-2.16967 0.39392,-7.99688 -3.36419,-5.82714 m 10,0 c -3.75806,2.16967 -0.39392,7.99688 3.36419,5.82714 3.75809,-2.16967 0.39389,-7.99682 -3.36419,-5.82714 m 20,0 c -3.75806,2.16967 -0.39392,7.99688 3.36419,5.82714 3.75809,-2.16967 0.39392,-7.99688 -3.36419,-5.82714 m 30,0 c -3.75803,2.16967 -0.39396,7.99688 3.36419,5.82714 3.75809,-2.16967 0.39392,-7.99688 -3.36419,-5.82714 m 10,0 c -3.75803,2.16967 -0.39396,7.99688 3.36419,5.82714 3.75809,-2.16967 0.39392,-7.99688 -3.36419,-5.82714 m 10,0 c -3.75803,2.16967 -0.39392,7.99688 3.36419,5.82714 3.75806,-2.16967 0.39395,-7.99688 -3.36419,-5.82714 m 10,0 c -3.75806,2.16967 -0.39392,7.99688 3.36419,5.82714 3.75806,-2.16967 0.39389,-7.99682 -3.36419,-5.82714 m 10,0 c -3.75806,2.16967 -0.39392,7.99682 3.36419,5.82714 3.75809,-2.16967 0.39389,-7.99682 -3.36419,-5.82714 m 9.99999,0 c -3.75802,2.16967 -0.3939,7.99688 3.3642,5.82714 3.7581,-2.16967 0.3939,-7.99688 -3.3642,-5.82714 m 30,0 c -3.758,2.16967 -0.3939,7.99688 3.3642,5.82714 3.7581,-2.16967 0.3939,-7.99682 -3.3642,-5.82714 m 10,0 c -3.758,2.16967 -0.3939,7.99688 3.3642,5.82714 3.7581,-2.16967 0.3939,-7.99688 -3.3642,-5.82714 m -280.999986,10 c -3.75803,2.16967 -0.39391,7.99688 3.36419,5.82714 3.75803,-2.16967 0.39391,-7.99688 -3.36419,-5.82714 m 10,0 c -3.75803,2.16967 -0.39392,7.99688 3.36419,5.82714 3.758026,-2.16967 0.39392,-7.99688 -3.36419,-5.82714 m 29.999996,0 c -3.75803,2.16967 -0.39392,7.99688 3.36419,5.82714 3.75803,-2.16967 0.39392,-7.99688 -3.36419,-5.82714 m 10,0 c -3.75803,2.16967 -0.39391,7.99688 3.36419,5.82714 3.75804,-2.16967 0.39392,-7.99688 -3.36419,-5.82714 m 30,0 c -3.75803,2.16967 -0.39391,7.99688 3.36419,5.82714 3.75809,-2.16967 0.39392,-7.99688 -3.36419,-5.82714 m 20.00384,-0.0394 c -4.24408,2.66656 0.39877,8.39251 4.35651,5.90588 4.2442,-2.66669 -0.39881,-8.39252 -4.35651,-5.90588 m 30.99616,0.0394 c -3.75806,2.16967 -0.39389,7.99682 3.36419,5.82714 3.75809,-2.16967 0.39392,-7.99688 -3.36419,-5.82714 m 10,0 c -3.75806,2.16967 -0.39392,7.99688 3.36419,5.82714 3.75809,-2.16967 0.39389,-7.99682 -3.36419,-5.82714 m 10,0 c -3.75806,2.16967 -0.39392,7.99688 3.36419,5.82714 3.75809,-2.16967 0.39389,-7.99682 -3.36419,-5.82714 m 10,0 c -3.75806,2.16967 -0.39389,7.99682 3.36419,5.82714 3.75809,-2.16967 0.39392,-7.99688 -3.36419,-5.82714 m 10,0 c -3.75803,2.16967 -0.39389,7.99682 3.36419,5.82714 3.75809,-2.16967 0.39392,-7.99688 -3.36419,-5.82714 m 30,0 c -3.758,2.16967 -0.39396,7.99688 3.36419,5.82714 3.75809,-2.16967 0.39392,-7.99688 -3.36419,-5.82714 m 39.99999,0 c -3.75802,2.16967 -0.3939,7.99688 3.3642,5.82714 3.7581,-2.16967 0.3939,-7.99688 -3.3642,-5.82714 m 30,0 c -3.758,2.16967 -0.3939,7.99688 3.3642,5.82714 3.7581,-2.16967 0.3939,-7.99682 -3.3642,-5.82714 m 10,0 c -3.758,2.16967 -0.3939,7.99682 3.3642,5.82714 3.7581,-2.16967 0.3939,-7.99688 -3.3642,-5.82714 M 7.1154321,303.30931 c -6.32884,2.45184 -6.994,8.36108 -7.00386,14.25769 v 36 c 0,4.91583 -0.90386,10.81042 2.43364,14.89124 3.75602,4.5924 9.2106899,4.10839 14.5663599,4.10876 13.04661,8.5e-4 33.83045,3.98602 45.99538,-0.74231 6.149482,-2.39014 6.975662,-8.48962 7.003862,-14.25769 0.0587,-11.99939 7.6e-4,-24.00049 7.6e-4,-36 0,-4.91577 0.90386,-10.81049 -2.43364,-14.89124 -3.756022,-4.5924 -9.210672,-4.10839 -14.566362,-4.10876 -13.0599,-8.5e-4 -33.81353,-3.97742 -45.9961399,0.74231 m 76.3140519,1.34412 c -3.75805,2.16967 -0.39389,7.99682 3.36419,5.82714 3.75804,-2.16967 0.39391,-7.99688 -3.36419,-5.82714 m 10,0 c -3.75805,2.16967 -0.39391,7.99688 3.36419,5.82714 3.758026,-2.16967 0.39392,-7.99688 -3.36419,-5.82714 m 19.999996,0 c -3.75803,2.16967 -0.39391,7.99688 3.36419,5.82714 3.75801,-2.16967 0.39394,-7.99688 -3.36419,-5.82714 m 10,0 c -3.75805,2.16967 -0.39391,7.99688 3.36419,5.82714 3.75804,-2.16967 0.39392,-7.99688 -3.36419,-5.82714 m 40,0 c -3.75805,2.16967 -0.39389,7.99682 3.36419,5.82714 3.75809,-2.16967 0.39392,-7.99688 -3.36419,-5.82714 m 10,0 c -3.75806,2.16967 -0.39392,7.99688 3.36419,5.82714 3.75809,-2.16967 0.39392,-7.99688 -3.36419,-5.82714 m 61,0 c -3.75806,2.16967 -0.39392,7.99688 3.36419,5.82714 3.75812,-2.16973 0.39389,-7.99682 -3.36419,-5.82714 m 50,0 c -3.758,2.16967 -0.39396,7.99688 3.36419,5.82714 3.75809,-2.16967 0.39392,-7.99688 -3.36419,-5.82714 m 20,0 c -3.75806,2.16967 -0.39389,7.99682 3.36419,5.82714 3.75809,-2.16967 0.39389,-7.99682 -3.36419,-5.82714 m 19.99999,0 c -3.75802,2.16967 -0.3939,7.99688 3.3642,5.82714 3.7581,-2.16967 0.3939,-7.99688 -3.3642,-5.82714 m 30,0 c -3.758,2.16967 -0.3939,7.99688 3.3642,5.82714 3.7581,-2.16967 0.3939,-7.99682 -3.3642,-5.82714 m -336.317128,8.34722 c 8.66664,-2.38317 34.90645,-3.50592 40.25696,4.6103 2.29109,3.4754 1.74203,7.9967 1.74227,11.95605 6e-4,9.2511 3.92412,29.2832 -8.00076,32.56635 -8.66464,2.38555 -34.90772,3.50396 -40.25695,-4.6103 -2.2910999,-3.4754 -1.74203,-7.99676 -1.74229,-11.95605 -6e-4,-9.35754 -4.0192899,-29.26099 8.00077,-32.56635 m 75.317142,1.65278 c -3.75803,2.16967 -0.39392,7.99688 3.36419,5.82714 3.758026,-2.16967 0.39392,-7.99688 -3.36419,-5.82714 m 39.999996,0 c -3.75801,2.16967 -0.39392,7.99688 3.36419,5.82714 3.75804,-2.16967 0.39391,-7.99688 -3.36419,-5.82714 m 10,0 c -3.75801,2.16967 -0.39392,7.99688 3.36419,5.82714 3.75803,-2.16967 0.39392,-7.99688 -3.36419,-5.82714 m 30,0 c -3.75806,2.16967 -0.39392,7.99688 3.36419,5.82714 3.75809,-2.16967 0.39389,-7.99682 -3.36419,-5.82714 m 10.00384,-0.0394 c -4.24408,2.66656 0.39877,8.39258 4.35651,5.90588 4.2442,-2.66669 -0.39884,-8.39252 -4.35651,-5.90588 m 40.99616,0.0394 c -3.75806,2.16967 -0.39392,7.99688 3.36419,5.82714 3.75809,-2.16967 0.39389,-7.99682 -3.36419,-5.82714 m 10,0 c -3.75803,2.16967 -0.39396,7.99688 3.36419,5.82714 3.75812,-2.16973 0.39389,-7.99682 -3.36419,-5.82714 m 10,0 c -3.75806,2.16967 -0.39392,7.99688 3.36419,5.82714 3.75809,-2.16967 0.39392,-7.99688 -3.36419,-5.82714 m 20,0 c -3.75803,2.16967 -0.39392,7.99688 3.36419,5.82714 3.75812,-2.16973 0.39386,-7.99682 -3.36419,-5.82714 m 20,0 c -3.758,2.16967 -0.39396,7.99688 3.36419,5.82714 3.75809,-2.16967 0.39392,-7.99688 -3.36419,-5.82714 m 39.99999,0 c -3.75799,2.16967 -0.3939,7.99688 3.3642,5.82714 3.7581,-2.16967 0.3939,-7.99688 -3.3642,-5.82714 m 10,0 c -3.758,2.16967 -0.3939,7.99688 3.3642,5.82714 3.7581,-2.16967 0.3939,-7.99682 -3.3642,-5.82714 m 10,0 c -3.758,2.16967 -0.3938,7.99682 3.3642,5.82714 3.7581,-2.16967 0.3939,-7.99682 -3.3642,-5.82714 m -317.314038,8.65588 c -8.2801,3.20776 -9.81919,18.73102 -4.57022,25.14893 4.09583,5.00793 14.76465,5.61975 20.56174,3.36645 8.21321,-3.19226 9.76091,-18.80322 4.57098,-25.14893 -4.09938,-5.0122 -14.76086,-5.61413 -20.5625,-3.36645 m 56.314052,1.34412 c -3.75803,2.16967 -0.39392,7.99688 3.36419,5.82714 3.75803,-2.16967 0.39391,-7.99688 -3.36419,-5.82714 m 19.999996,0 c -3.758026,2.16967 -0.39392,7.99688 3.36419,5.82714 3.75801,-2.16967 0.39392,-7.99688 -3.36419,-5.82714 m 20,0 c -3.75803,2.16967 -0.39392,7.99688 3.36419,5.82714 3.75803,-2.16967 0.39392,-7.99688 -3.36419,-5.82714 m 10,0 c -3.75801,2.16967 -0.39392,7.99688 3.36419,5.82714 3.75804,-2.16967 0.39392,-7.99688 -3.36419,-5.82714 m 10,0 c -3.75803,2.16967 -0.39392,7.99688 3.36419,5.82714 3.75801,-2.16967 0.39394,-7.99688 -3.36419,-5.82714 m 10,0 c -3.75803,2.16967 -0.39392,7.99688 3.36419,5.82714 3.75803,-2.16967 0.39391,-7.99688 -3.36419,-5.82714 m 30.00384,-0.0394 c -4.24408,2.66656 0.39877,8.39258 4.35651,5.90588 4.2442,-2.66669 -0.39884,-8.39252 -4.35651,-5.90588 m 10.99616,0.0394 c -3.75806,2.16967 -0.39392,7.99688 3.36419,5.82714 3.75812,-2.16973 0.39386,-7.99682 -3.36419,-5.82714 m 30,0 c -3.75803,2.16967 -0.39392,7.99688 3.36419,5.82714 3.75809,-2.16967 0.39389,-7.99682 -3.36419,-5.82714 m 20,0 c -3.75803,2.16967 -0.39392,7.99688 3.36419,5.82714 3.75809,-2.16967 0.39392,-7.99688 -3.36419,-5.82714 m 10,0 c -3.75803,2.16967 -0.39392,7.99688 3.36419,5.82714 3.75809,-2.16967 0.39389,-7.99682 -3.36419,-5.82714 m 10,0 c -3.75803,2.16967 -0.39392,7.99688 3.36419,5.82714 3.75812,-2.16973 0.39386,-7.99682 -3.36419,-5.82714 m 20,0 c -3.758,2.16967 -0.39396,7.99688 3.36419,5.82714 3.75809,-2.16967 0.39392,-7.99688 -3.36419,-5.82714 m 10,0 c -3.75803,2.16967 -0.39392,7.99688 3.36419,5.82714 3.75806,-2.16967 0.39392,-7.99688 -3.36419,-5.82714 m 10,0 c -3.75803,2.16967 -0.39392,7.99688 3.36419,5.82714 3.75809,-2.16967 0.39389,-7.99682 -3.36419,-5.82714 m 10,0 c -3.75803,2.16967 -0.39392,7.99688 3.36419,5.82714 3.75809,-2.16967 0.39389,-7.99682 -3.36419,-5.82714 m 9.99999,0 c -3.75799,2.16967 -0.3939,7.99688 3.3642,5.82714 3.7581,-2.16967 0.3939,-7.99688 -3.3642,-5.82714 m 10,0 c -3.758,2.16967 -0.3939,7.99688 3.3642,5.82714 3.7581,-2.16967 0.3939,-7.99682 -3.3642,-5.82714 m 10,0 c -3.758,2.16967 -0.3938,7.99682 3.3642,5.82714 3.7581,-2.16967 0.3939,-7.99682 -3.3642,-5.82714 m 20,0 c -3.758,2.16967 -0.3939,7.99688 3.3642,5.82714 3.7581,-2.16967 0.3939,-7.99682 -3.3642,-5.82714 m -270.999986,10 c -3.75805,2.16967 -0.39391,7.99688 3.36419,5.82714 3.758006,-2.16967 0.39392,-7.99688 -3.36419,-5.82714 m 9.999996,0 c -3.758046,2.16967 -0.39391,7.99688 3.36419,5.82714 3.75801,-2.16967 0.39392,-7.99688 -3.36419,-5.82714 m 60,0 c -3.75805,2.16967 -0.39391,7.99682 3.36419,5.82714 3.75809,-2.16967 0.39389,-7.99688 -3.36419,-5.82714 m 10,0 c -3.75806,2.16967 -0.39392,7.99688 3.36419,5.82714 3.75809,-2.16967 0.39392,-7.99688 -3.36419,-5.82714 m 21,0 c -3.75806,2.16967 -0.39392,7.99688 3.36419,5.82714 3.75812,-2.16973 0.39389,-7.99682 -3.36419,-5.82714 m 10,0 c -3.75806,2.16967 -0.39392,7.99688 3.36419,5.82714 3.75809,-2.16967 0.39389,-7.99682 -3.36419,-5.82714 m 50,0 c -3.75803,2.16967 -0.39392,7.99688 3.36419,5.82714 3.75809,-2.16967 0.39389,-7.99682 -3.36419,-5.82714 m 40,0 c -3.75803,2.16967 -0.39392,7.99688 3.36419,5.82714 3.75806,-2.16967 0.39392,-7.99688 -3.36419,-5.82714 m 10,0 c -3.75803,2.16967 -0.39392,7.99688 3.36419,5.82714 3.75806,-2.16967 0.39389,-7.99682 -3.36419,-5.82714 m 10,0 c -3.75803,2.16967 -0.39392,7.99688 3.36419,5.82714 3.75809,-2.16967 0.39389,-7.99682 -3.36419,-5.82714 m -220.999996,10 c -3.75801,2.16967 -0.39392,7.99688 3.36419,5.82714 3.758026,-2.16967 0.39392,-7.99688 -3.36419,-5.82714 m 19.999996,0 c -3.75801,2.16967 -0.39392,7.99688 3.36419,5.82714 3.75801,-2.16967 0.39392,-7.99688 -3.36419,-5.82714 m 10,0 c -3.75801,2.16967 -0.39392,7.99688 3.36419,5.82714 3.75803,-2.16967 0.39391,-7.99688 -3.36419,-5.82714 m 10,0 c -3.75801,2.16967 -0.39392,7.99688 3.36419,5.82714 3.75804,-2.16967 0.39391,-7.99688 -3.36419,-5.82714 m 10,0 c -3.75801,2.16967 -0.39394,7.99688 3.36419,5.82714 3.75801,-2.16967 0.39392,-7.99688 -3.36419,-5.82714 m 20,0 c -3.75801,2.16967 -0.39392,7.99688 3.36419,5.82714 3.75809,-2.16967 0.39392,-7.99688 -3.36419,-5.82714 m 20.00384,-0.0394 c -4.24408,2.66656 0.39877,8.39258 4.35651,5.90588 4.2442,-2.66669 -0.39884,-8.39252 -4.35651,-5.90588 m 20.99616,0.0394 c -3.75806,2.16967 -0.39389,7.99682 3.36419,5.82714 3.75809,-2.16967 0.39392,-7.99688 -3.36419,-5.82714 m 10,0 c -3.75806,2.16967 -0.39389,7.99682 3.36419,5.82714 3.75809,-2.16967 0.39392,-7.99688 -3.36419,-5.82714 m 40,0 c -3.75803,2.16967 -0.39389,7.99682 3.36419,5.82714 3.75809,-2.16967 0.39392,-7.99682 -3.36419,-5.82714 m 20,0 c -3.75803,2.16967 -0.39396,7.99688 3.36419,5.82714 3.75809,-2.16967 0.39392,-7.99688 -3.36419,-5.82714 m 20,0 c -3.75803,2.16967 -0.39392,7.99688 3.36419,5.82714 3.75806,-2.16967 0.39395,-7.99688 -3.36419,-5.82714 m 10,0 c -3.75803,2.16967 -0.39389,7.99682 3.36419,5.82714 3.75806,-2.16967 0.39392,-7.99688 -3.36419,-5.82714 m 39.99999,0 c -3.758,2.16967 -0.3938,7.99682 3.3642,5.82714 3.7581,-2.16967 0.3939,-7.99688 -3.3642,-5.82714 m 10,0 c -3.758,2.16967 -0.3939,7.99688 3.3642,5.82714 3.7581,-2.16967 0.3939,-7.99682 -3.3642,-5.82714 m -260.999986,10 c -3.75803,2.16967 -0.39392,7.99688 3.36419,5.82714 3.758006,-2.16967 0.39392,-7.99688 -3.36419,-5.82714 m 19.999996,0 c -3.75803,2.16967 -0.39392,7.99688 3.36419,5.82714 3.758,-2.16967 0.39394,-7.99688 -3.36419,-5.82714 m 30,0 c -3.75803,2.16967 -0.39392,7.99688 3.36419,5.82714 3.758,-2.16967 0.39394,-7.99688 -3.36419,-5.82714 m 30,0 c -3.75806,2.16967 -0.39389,7.99682 3.36419,5.82714 3.75809,-2.16967 0.39392,-7.99688 -3.36419,-5.82714 m 10.00384,-0.0394 c -4.24408,2.66656 0.39877,8.39251 4.35651,5.90588 4.24423,-2.66669 -0.39884,-8.39252 -4.35651,-5.90588 m 30.99616,0.0394 c -3.75806,2.16967 -0.39389,7.99682 3.36419,5.82714 3.75806,-2.16967 0.39392,-7.99688 -3.36419,-5.82714 m 30,0 c -3.75806,2.16967 -0.39389,7.99682 3.36419,5.82714 3.75806,-2.16967 0.39392,-7.99688 -3.36419,-5.82714 m 20,0 c -3.75803,2.16967 -0.39389,7.99682 3.36419,5.82714 3.75812,-2.16973 0.39389,-7.99682 -3.36419,-5.82714 m 20,0 c -3.758,2.16967 -0.39392,7.99688 3.36419,5.82714 3.75809,-2.16967 0.39392,-7.99688 -3.36419,-5.82714 m 10,0 c -3.75803,2.16967 -0.39392,7.99688 3.36419,5.82714 3.75806,-2.16967 0.39395,-7.99688 -3.36419,-5.82714 m 29.99999,0 c -3.75802,2.16967 -0.3939,7.99688 3.3642,5.82714 3.758,-2.16967 0.394,-7.99688 -3.3642,-5.82714 m 10,0 c -3.758,2.16967 -0.3939,7.99688 3.3642,5.82714 3.7581,-2.16967 0.3939,-7.99688 -3.3642,-5.82714 m 10,0 c -3.758,2.16967 -0.3938,7.99682 3.3642,5.82714 3.7581,-2.16967 0.3939,-7.99688 -3.3642,-5.82714 m 10,0 c -3.758,2.16967 -0.3939,7.99688 3.3642,5.82714 3.7581,-2.16967 0.3939,-7.99688 -3.3642,-5.82714 m -270.999986,10 c -3.75803,2.16967 -0.39391,7.99688 3.36419,5.82714 3.75804,-2.16967 0.39389,-7.99682 -3.36419,-5.82714 m 10,0 c -3.75803,2.16967 -0.39392,7.99688 3.36419,5.82714 3.758036,-2.16967 0.39391,-7.99688 -3.36419,-5.82714 m 39.999996,0 c -3.75801,2.16967 -0.39392,7.99688 3.36419,5.82714 3.75806,-2.16967 0.39389,-7.99682 -3.36419,-5.82714 m 10,0 c -3.75801,2.16967 -0.39392,7.99688 3.36419,5.82714 3.75803,-2.16967 0.39391,-7.99688 -3.36419,-5.82714 m 10,0 c -3.75801,2.16967 -0.39392,7.99688 3.36419,5.82714 3.75804,-2.16967 0.39389,-7.99682 -3.36419,-5.82714 m 30.00384,-0.0394 c -4.24408,2.66656 0.39877,8.39258 4.35651,5.90588 4.24423,-2.66669 -0.39887,-8.39252 -4.35651,-5.90588 m 10.99616,0.0394 c -3.75806,2.16967 -0.39389,7.99682 3.36419,5.82714 3.75812,-2.16973 0.39389,-7.99682 -3.36419,-5.82714 m 20,0 c -3.75806,2.16967 -0.39389,7.99682 3.36419,5.82714 3.75809,-2.16967 0.39392,-7.99688 -3.36419,-5.82714 m 10,0 c -3.75806,2.16967 -0.39392,7.99688 3.36419,5.82714 3.75809,-2.16967 0.39389,-7.99682 -3.36419,-5.82714 m 10,0 c -3.75806,2.16967 -0.39392,7.99688 3.36419,5.82714 3.75809,-2.16967 0.39389,-7.99682 -3.36419,-5.82714 m 60,0 c -3.75803,2.16967 -0.39392,7.99688 3.36419,5.82714 3.75806,-2.16967 0.39395,-7.99688 -3.36419,-5.82714 m 10,0 c -3.75806,2.16967 -0.39389,7.99682 3.36419,5.82714 3.75806,-2.16967 0.39392,-7.99682 -3.36419,-5.82714 m 10,0 c -3.75806,2.16967 -0.39389,7.99682 3.36419,5.82714 3.75809,-2.16967 0.39389,-7.99682 -3.36419,-5.82714 m 19.99999,0 c -3.758,2.16967 -0.3939,7.99688 3.3642,5.82714 3.7581,-2.16967 0.3939,-7.99682 -3.3642,-5.82714 m 20,0 c -3.758,2.16967 -0.3939,7.99688 3.3642,5.82714 3.7581,-2.16967 0.3939,-7.99682 -3.3642,-5.82714 m 10,0 c -3.758,2.16967 -0.3939,7.99688 3.3642,5.82714 3.7581,-2.16967 0.3939,-7.99688 -3.3642,-5.82714 z"></path>
          <g transform="translate(-32.593081,-32.954998)">
            <path d="m 185.28927,179.7445 c -7.4409,2.88272 -8.22293,9.83021 -8.23452,16.76293 v 42.32562 c 0,5.77946 -1.06268,12.71009 2.86126,17.5078 4.41602,5.39941 10.82914,4.83029 17.12584,4.83072 15.33898,0.001 39.77494,4.68641 54.07731,-0.87274 7.22999,-2.81019 8.20136,-9.98135 8.23452,-16.76293 0.069,-14.10776 8.9e-4,-28.21766 8.9e-4,-42.32563 0,-5.77945 1.06267,-12.71009 -2.86126,-17.5078 -4.41594,-5.39927 -10.82922,-4.83028 -17.12584,-4.83072 -15.35463,-0.001 -39.75502,-4.67637 -54.0782,0.87275 m 12.9292,11.39422 c 10.1893,-2.80199 41.04001,-4.12187 47.33056,5.42038 2.69365,4.086 2.04814,9.40196 2.04842,14.05687 7.1e-4,10.8767 4.61361,34.42839 -9.40658,38.28864 -10.18697,2.8048 -41.04152,4.11957 -47.33057,-5.42039 -2.69367,-4.08607 -2.04814,-9.40195 -2.04843,-14.05686 -7.1e-4,-11.00193 -4.72553,-34.40234 9.4066,-38.28864"></path>
            <path d="m 235.64169,206.9083 c -4.49006,-4.49006 -11.74995,-4.50464 -16.24,-0.0291 l -0.0146,0.0146 c -0.65602,0.65602 -1.67648,0.65602 -2.33249,0 l -0.0146,-0.0146 c -4.44632,-4.4609 -11.6479,-4.50463 -16.15253,-0.11662 -3.90693,3.80489 -4.56295,10.05888 -1.54529,14.60725 0.90385,1.37034 2.04094,2.44912 3.29466,3.25091 l 14.03871,11.35635 c 0.94757,0.75806 2.30334,0.75806 3.23633,0 l 13.93667,-11.37092 c 0.94757,-0.62686 1.83684,-1.41408 2.5949,-2.36165 3.64452,-4.50464 3.28006,-11.23972 -0.8018,-15.33615"></path>
          </g>
        </svg>